<?xml version="1.0" encoding="UTF-8" standalone="no"?>
<!-- Created with Inkscape (http://www.inkscape.org/) -->

<svg
   width="128mm"
   height="128mm"
   viewBox="0 0 128 128"
   version="1.1"
   id="svg1"
   inkscape:version="1.3 (0e150ed, 2023-07-21)"
   sodipodi:docname="signpost.svg"
   xmlns:inkscape="http://www.inkscape.org/namespaces/inkscape"
   xmlns:sodipodi="http://sodipodi.sourceforge.net/DTD/sodipodi-0.dtd"
   xmlns="http://www.w3.org/2000/svg"
   xmlns:svg="http://www.w3.org/2000/svg">
  <sodipodi:namedview
     id="namedview1"
     pagecolor="#ffffff"
     bordercolor="#666666"
     borderopacity="1.0"
     inkscape:showpageshadow="2"
     inkscape:pageopacity="0.0"
     inkscape:pagecheckerboard="0"
     inkscape:deskcolor="#d1d1d1"
     inkscape:document-units="mm"
     inkscape:zoom="1.5483367"
     inkscape:cx="345.53209"
     inkscape:cy="309.68717"
     inkscape:window-width="1392"
     inkscape:window-height="1212"
     inkscape:window-x="0"
     inkscape:window-y="30"
     inkscape:window-maximized="0"
     inkscape:current-layer="layer1" />
  <defs
     id="defs1" />
  <g
     inkscape:label="Layer 1"
     inkscape:groupmode="layer"
     id="layer1"
     transform="translate(-25.220585,-57.508222)">
    <path
       id="rect1"
       style="fill:#ffffff;stroke:#000000;stroke-width:0.508362;stroke-linecap:round;paint-order:markers fill stroke"
       d="m 87.570053,59.435074 c 4.834652,0 8.726806,3.892155 8.726806,8.726806 V 183.58137 H 78.843249 V 68.16188 c 0,-4.834651 3.892156,-8.726806 8.726804,-8.726806 z"
       sodipodi:nodetypes="ssccss" />
    <path
       id="rect2"
       style="fill:#ffffff;stroke:#000000;stroke-width:0.508363;stroke-linecap:round;stroke-linejoin:round;stroke-dasharray:none;paint-order:markers fill stroke"
       d="m 65.34212,74.403044 h 71.92739 l 8.30669,6.882686 -8.30669,6.882685 H 65.34212 Z"
       sodipodi:nodetypes="cccccc" />
    <path
       style="font-weight:300;font-size:9.20082px;line-height:1.25;font-family:Roboto;-inkscape-font-specification:'Roboto Light';fill:#666666;stroke-width:0.575051"
       d="m 111.62439,80.768503 h 0.54809 q 0.50317,0 0.84011,-0.170718 0.34144,-0.170718 0.51216,-0.458244 0.17521,-0.287526 0.17521,-0.637947 0,-0.395348 -0.14825,-0.691859 -0.14826,-0.301003 -0.45376,-0.467229 -0.301,-0.170718 -0.77272,-0.170718 -0.40883,0 -0.73679,0.161733 -0.32346,0.161733 -0.51215,0.462736 -0.18869,0.301004 -0.18869,0.714322 h -0.53462 q 0,-0.530126 0.25608,-0.934458 0.25608,-0.408826 0.70534,-0.637948 0.44926,-0.229122 1.01083,-0.229122 0.57954,0 1.00634,0.211152 0.43129,0.211151 0.66939,0.615484 0.23811,0.404333 0.23811,0.983877 0,0.292018 -0.13028,0.579544 -0.1258,0.287525 -0.37738,0.52114 -0.25159,0.233615 -0.62896,0.372885 -0.37289,0.13927 -0.86258,0.13927 h -0.61548 z m 0,0.46723 v -0.359407 h 0.61548 q 0.55708,0 0.95692,0.130285 0.40433,0.130285 0.66041,0.363899 0.25608,0.229122 0.37738,0.534618 0.12579,0.305496 0.12579,0.655918 0,0.444766 -0.15275,0.795188 -0.14825,0.345929 -0.4223,0.588529 -0.26956,0.238107 -0.63795,0.3639 -0.3639,0.1213 -0.79968,0.1213 -0.39535,0 -0.77272,-0.116808 -0.37289,-0.116807 -0.67389,-0.350422 -0.29651,-0.233614 -0.47172,-0.584036 -0.17521,-0.350422 -0.17521,-0.813158 h 0.53911 q 0,0.413318 0.19767,0.727799 0.19767,0.314481 0.5481,0.494184 0.35491,0.179704 0.80866,0.179704 0.46274,0 0.7907,-0.161733 0.33245,-0.161733 0.50766,-0.471722 0.17521,-0.309988 0.17521,-0.754755 0,-0.471721 -0.21115,-0.768232 -0.20666,-0.296511 -0.57954,-0.435781 -0.3684,-0.13927 -0.85809,-0.13927 z m 3.94449,2.776419 q 0,-0.161733 0.0988,-0.269555 0.10333,-0.112315 0.27854,-0.112315 0.17971,0 0.28304,0.112315 0.10333,0.107822 0.10333,0.265062 0,0.157241 -0.10333,0.265063 -0.10333,0.107822 -0.28304,0.107822 -0.17521,0 -0.27854,-0.107822 -0.0988,-0.107822 -0.0988,-0.26057 z m 2.95612,-2.906704 -0.4268,-0.1213 0.31898,-3.185245 h 3.2706 v 0.50317 h -2.80787 l -0.23361,2.201368 q 0.17072,-0.1213 0.49418,-0.238107 0.32796,-0.1213 0.73679,-0.1213 0.44027,0 0.79519,0.148255 0.35491,0.143763 0.61099,0.417811 0.26057,0.274048 0.39535,0.664903 0.13927,0.390855 0.13927,0.880547 0,0.471722 -0.11681,0.867069 -0.11232,0.395348 -0.35042,0.691859 -0.23811,0.292018 -0.61099,0.453751 -0.3684,0.161734 -0.87606,0.161734 -0.39085,0 -0.73678,-0.107823 -0.34144,-0.112314 -0.611,-0.336944 -0.26955,-0.229122 -0.44027,-0.566066 -0.16622,-0.341436 -0.20666,-0.79968 h 0.52114 q 0.0494,0.435781 0.23362,0.736784 0.18869,0.301003 0.49867,0.458244 0.31449,0.152748 0.74128,0.152748 0.35042,0 0.61099,-0.112315 0.26507,-0.116807 0.44028,-0.332451 0.1797,-0.220137 0.26955,-0.534618 0.0943,-0.318974 0.0943,-0.723307 0,-0.350422 -0.0988,-0.64244 -0.0988,-0.296511 -0.29202,-0.516647 -0.18869,-0.22463 -0.46723,-0.34593 -0.27854,-0.1213 -0.63795,-0.1213 -0.46722,0 -0.74576,0.125793 -0.27405,0.125792 -0.51216,0.341437 z m 4.93735,-3.665952 v 6.900615 h -0.53911 v -6.900615 z m 3.04598,2.039635 -2.26876,2.255279 -0.9704,0.934458 -0.0764,-0.530125 0.77722,-0.840114 1.85993,-1.819498 z m -0.46723,4.86098 -2.02616,-2.524835 0.29202,-0.467229 2.38107,2.992064 z m 1.90486,-3.859133 v 3.859133 h -0.54361 v -4.86098 h 0.52114 z m -0.10333,1.127639 -0.25608,-0.134777 q 0.0225,-0.431289 0.16173,-0.808666 0.13927,-0.377377 0.38187,-0.664903 0.2471,-0.287526 0.59303,-0.449259 0.35042,-0.161733 0.79069,-0.161733 0.35491,0 0.64244,0.09884 0.28753,0.09434 0.49419,0.301003 0.20665,0.202167 0.31448,0.530126 0.11231,0.323466 0.11231,0.78171 v 3.239156 h -0.53462 v -3.216693 q 0,-0.4852 -0.15274,-0.759247 -0.14826,-0.274048 -0.41782,-0.390856 -0.26506,-0.116807 -0.61548,-0.116807 -0.41332,0 -0.70084,0.170718 -0.28304,0.166226 -0.46274,0.435781 -0.17521,0.265063 -0.26057,0.570559 -0.0809,0.301003 -0.0898,0.575051 z m 3.23017,-0.422303 -0.35941,0.009 q 0.0225,-0.354914 0.16173,-0.678381 0.14377,-0.323466 0.39086,-0.575051 0.24709,-0.256077 0.58853,-0.404333 0.34593,-0.148255 0.77722,-0.148255 0.37737,0 0.67388,0.103329 0.29652,0.09884 0.49868,0.314482 0.20666,0.215644 0.31448,0.552588 0.10783,0.336944 0.10783,0.808666 v 3.171767 h -0.53912 v -3.17626 q 0,-0.512155 -0.15274,-0.795188 -0.14826,-0.287526 -0.41332,-0.39984 -0.26506,-0.112315 -0.61998,-0.112315 -0.35042,0.0045 -0.61548,0.130285 -0.26507,0.1213 -0.44477,0.323466 -0.17521,0.197674 -0.26955,0.426796 -0.0899,0.229122 -0.0988,0.449259 z"
       id="text2"
       aria-label="3.5km" />
    <path
       style="font-weight:300;font-size:9.20082px;line-height:1.25;font-family:Roboto;-inkscape-font-specification:'Roboto Light';stroke-width:0.575051"
       d="m 74.912956,82.295983 h 0.552588 q -0.06739,0.664903 -0.3639,1.141118 -0.292018,0.476214 -0.808666,0.736784 -0.512155,0.256078 -1.230969,0.256078 -0.557081,0 -1.010832,-0.211152 -0.453751,-0.211152 -0.777218,-0.602007 -0.323466,-0.390855 -0.498677,-0.934458 -0.175211,-0.543603 -0.175211,-1.204014 v -0.817651 q 0,-0.664903 0.175211,-1.204013 0.175211,-0.543603 0.50317,-0.934459 0.327959,-0.390855 0.786203,-0.602006 0.462736,-0.211152 1.033295,-0.211152 0.700844,0 1.204014,0.256078 0.507662,0.251585 0.79968,0.727799 0.296511,0.476214 0.3639,1.150102 h -0.552588 q -0.0629,-0.530125 -0.278541,-0.898517 -0.215644,-0.368392 -0.593022,-0.561574 -0.377377,-0.197674 -0.943443,-0.197674 -0.453751,0 -0.817651,0.175211 -0.359407,0.175211 -0.610992,0.50317 -0.251585,0.323466 -0.386362,0.777218 -0.130286,0.453751 -0.130286,1.010832 v 0.826636 q 0,0.534618 0.125793,0.98837 0.130285,0.453751 0.372885,0.786203 0.242599,0.332451 0.597514,0.516647 0.354914,0.184196 0.813158,0.184196 0.579544,0 0.965907,-0.184196 0.386362,-0.184196 0.602006,-0.552588 0.215645,-0.372885 0.283034,-0.920981 z m 5.849349,-4.49708 h 0.552588 v 4.429691 q 0,0.732292 -0.309988,1.221984 -0.309989,0.489692 -0.835622,0.736785 -0.52114,0.2426 -1.154595,0.2426 -0.651425,0 -1.172565,-0.2426 -0.52114,-0.247093 -0.826636,-0.736785 -0.301004,-0.489692 -0.301004,-1.221984 v -4.429691 h 0.548096 v 4.429691 q 0,0.570559 0.22463,0.956922 0.229121,0.38187 0.624469,0.575051 0.395348,0.193181 0.90301,0.193181 0.507663,0 0.903011,-0.193181 0.395347,-0.193181 0.619977,-0.575051 0.224629,-0.386363 0.224629,-0.956922 z m 3.890581,6.541208 h -1.478061 l 0.009,-0.476215 h 1.469076 q 0.705337,0 1.212999,-0.314481 0.512155,-0.314481 0.790696,-0.876054 0.27854,-0.566066 0.27854,-1.307343 v -0.6065 q 0,-0.566066 -0.161733,-1.02431 -0.157241,-0.458244 -0.453752,-0.78171 -0.29651,-0.327959 -0.709828,-0.50317 -0.408826,-0.175211 -0.916488,-0.175211 h -1.545451 v -0.476214 h 1.545451 q 0.610992,0 1.123147,0.211151 0.512155,0.20666 0.885039,0.602007 0.377378,0.390855 0.579544,0.938951 0.206659,0.548096 0.206659,1.221984 v 0.593022 q 0,0.673888 -0.206659,1.221984 -0.202166,0.548095 -0.579544,0.93895 -0.377377,0.390856 -0.898517,0.602007 -0.516648,0.211152 -1.150103,0.211152 z m -1.235461,-6.541208 v 6.541208 h -0.552589 v -6.541208 z m 7.529577,0.390855 -2.264264,6.150353 h -0.575052 l 2.470924,-6.541208 h 0.404333 z m 2.057605,6.150353 -2.264264,-6.150353 -0.03145,-0.390855 h 0.39984 l 2.475416,6.541208 z m -0.39984,-2.30919 v 0.476214 h -3.477263 v -0.476214 z"
       id="text1"
       aria-label="CUDA" />
    <path
       id="path1"
       style="fill:#ffffff;stroke:#000000;stroke-width:0.508363;stroke-linecap:round;stroke-linejoin:round;stroke-dasharray:none;paint-order:markers fill stroke"
       d="M 111.93373,94.304212 H 40.00634 l -8.306686,6.882688 8.306686,6.88269 h 71.92739 z"
       sodipodi:nodetypes="cccccc" />
    <path
       style="font-weight:300;font-size:9.20082px;line-height:1.25;font-family:Roboto;-inkscape-font-specification:'Roboto Light';text-align:end;text-anchor:end;stroke-width:0.575051"
       d="m 79.835304,100.88333 v 0.69635 q 0,0.68737 -0.179704,1.24445 -0.179703,0.55708 -0.512155,0.95243 -0.332451,0.39534 -0.804173,0.6065 -0.467229,0.21115 -1.046773,0.21115 -0.570559,0 -1.04228,-0.21115 -0.467229,-0.21116 -0.808666,-0.6065 -0.336944,-0.39535 -0.52114,-0.95243 -0.184196,-0.55708 -0.184196,-1.24445 v -0.69635 q 0,-0.68737 0.179703,-1.239954 0.184196,-0.557081 0.52114,-0.952428 0.336944,-0.395348 0.804174,-0.6065 0.471721,-0.211151 1.04228,-0.211151 0.579544,0 1.046773,0.211151 0.471722,0.211152 0.808666,0.6065 0.336944,0.395347 0.516647,0.952428 0.179704,0.552584 0.179704,1.239954 z m -0.552588,0.69635 v -0.70533 q 0,-0.57955 -0.134778,-1.042285 -0.130285,-0.462737 -0.390855,-0.790695 -0.256078,-0.327959 -0.628963,-0.50317 -0.372884,-0.175211 -0.844606,-0.175211 -0.467229,0 -0.835621,0.175211 -0.368393,0.175211 -0.628963,0.50317 -0.256077,0.327958 -0.395347,0.790695 -0.134778,0.462735 -0.134778,1.042285 v 0.70533 q 0,0.58404 0.13927,1.05127 0.13927,0.46723 0.39984,0.79519 0.260571,0.32795 0.628963,0.50317 0.368392,0.17521 0.835621,0.17521 0.476214,0 0.844607,-0.17521 0.368392,-0.17522 0.624469,-0.50317 0.256078,-0.32796 0.386363,-0.79519 0.134778,-0.46723 0.134778,-1.05127 z m 2.354115,-1.00185 v 5.79544 h -0.53911 v -6.729894 h 0.50317 z m 3.378427,1.45111 v 0.0943 q 0,0.54361 -0.125793,0.99736 -0.1213,0.44926 -0.359407,0.78171 -0.238107,0.32796 -0.584036,0.51215 -0.341437,0.17971 -0.786203,0.17971 -0.435781,0 -0.777218,-0.13478 -0.341437,-0.13478 -0.584036,-0.38187 -0.2426,-0.25158 -0.390856,-0.58853 -0.148255,-0.33694 -0.202166,-0.73678 v -1.23996 q 0.06739,-0.44027 0.220137,-0.79968 0.152748,-0.3594 0.390855,-0.61997 0.238107,-0.260575 0.570559,-0.399845 0.336944,-0.13927 0.76374,-0.13927 0.444766,0 0.790695,0.17521 0.350422,0.170719 0.588529,0.498675 0.238107,0.32347 0.359407,0.78171 0.125793,0.45375 0.125793,1.01982 z m -0.539111,0.0943 v -0.0943 q 0,-0.4268 -0.08985,-0.7907 -0.08536,-0.36389 -0.265062,-0.63345 -0.175211,-0.27405 -0.449259,-0.4268 -0.269555,-0.15274 -0.64244,-0.15274 -0.386363,0 -0.660411,0.13028 -0.269555,0.12579 -0.449258,0.33695 -0.175211,0.20665 -0.278541,0.45375 -0.103329,0.24709 -0.152748,0.4852 v 1.43313 q 0.08536,0.34144 0.274048,0.62896 0.188689,0.28753 0.50317,0.46274 0.314481,0.17521 0.772725,0.17521 0.368392,0 0.637947,-0.15275 0.269556,-0.15724 0.444767,-0.42679 0.179703,-0.27405 0.265062,-0.63795 0.08985,-0.36839 0.08985,-0.7907 z m 3.616533,2.47093 q -0.476214,0 -0.876055,-0.17521 -0.39984,-0.17521 -0.691858,-0.49419 -0.292018,-0.31897 -0.453752,-0.75475 -0.161733,-0.44028 -0.161733,-0.96142 v -0.19318 q 0,-0.56157 0.166226,-1.01532 0.170718,-0.45375 0.458244,-0.77722 0.292018,-0.327959 0.664903,-0.498677 0.377377,-0.170718 0.795188,-0.170718 0.462737,0 0.817651,0.166225 0.359407,0.161733 0.606499,0.46274 0.247093,0.29651 0.372885,0.70533 0.125793,0.40434 0.125793,0.89403 v 0.32796 h -3.67943 v -0.46274 h 3.140319 v -0.0584 q -0.009,-0.40883 -0.166226,-0.76374 -0.152748,-0.35941 -0.458244,-0.58404 -0.301003,-0.22463 -0.759247,-0.22463 -0.345929,0 -0.628962,0.14376 -0.283033,0.14377 -0.489692,0.41332 -0.202167,0.26506 -0.314482,0.63346 -0.112314,0.3639 -0.112314,0.80866 v 0.19318 q 0,0.39984 0.1213,0.75027 0.1213,0.35042 0.341436,0.61548 0.220137,0.26057 0.525633,0.41332 0.305496,0.14825 0.678381,0.14825 0.426796,0 0.759247,-0.15724 0.336944,-0.16173 0.602007,-0.50766 l 0.336944,0.26057 q -0.161733,0.23362 -0.395348,0.43129 -0.233614,0.19318 -0.561573,0.31448 -0.327959,0.11681 -0.76374,0.11681 z m 3.409874,-3.91305 v 3.8232 h -0.534618 v -4.860984 h 0.512155 z m -0.116807,1.0917 -0.238107,-0.13477 q 0.02246,-0.43129 0.170718,-0.80867 0.148255,-0.37738 0.39984,-0.6649 0.256078,-0.287529 0.602007,-0.449262 0.345929,-0.161733 0.76374,-0.161733 0.3639,0 0.651425,0.09884 0.287526,0.09884 0.4852,0.314482 0.202166,0.211147 0.305496,0.552587 0.107822,0.33695 0.107822,0.81765 v 3.16728 h -0.539111 v -3.17177 q 0,-0.49868 -0.13927,-0.78171 -0.13927,-0.28753 -0.395348,-0.40883 -0.256077,-0.1213 -0.606499,-0.1213 -0.386363,0 -0.678381,0.17072 -0.287526,0.16623 -0.485199,0.43578 -0.193182,0.26507 -0.296511,0.57056 -0.10333,0.30101 -0.107822,0.57505 z m 4.937355,-3.809712 h 0.55708 l 2.417013,5.759502 2.421505,-5.759502 h 0.55708 l -2.767434,6.541212 h -0.422303 z m -0.170719,0 h 0.489692 l 0.0629,3.683922 v 2.85729 h -0.552589 z m 5.808917,0 h 0.48969 v 6.541212 h -0.55259 v -2.85729 z m 4.38027,3.877102 h -1.86891 v -0.47621 h 1.86891 q 0.58404,0 0.94794,-0.18869 0.3639,-0.18869 0.53012,-0.51665 0.17072,-0.32796 0.17072,-0.736783 0,-0.399841 -0.17072,-0.736785 -0.16622,-0.336944 -0.53012,-0.53911 -0.3639,-0.206659 -0.94794,-0.206659 h -1.67573 v 6.064997 h -0.55259 v -6.541212 h 2.22832 q 0.71882,0 1.20851,0.247093 0.48969,0.247092 0.74127,0.687366 0.25159,0.440273 0.25159,1.015325 0,0.602008 -0.25159,1.037788 -0.24709,0.43129 -0.74127,0.66041 -0.48969,0.22912 -1.20851,0.22912 z"
       id="text3"
       aria-label="OpenMP" />
    <path
       style="font-weight:300;font-size:9.20082px;line-height:1.25;font-family:Roboto;-inkscape-font-specification:'Roboto Light';fill:#666666;stroke-width:0.575051"
       d="m 45.1685,97.936193 v 6.568167 h -0.534618 v -5.889786 l -1.779065,0.66041 v -0.507662 l 2.223831,-0.831129 z m 2.641642,6.240207 q 0,-0.16174 0.09884,-0.26956 0.103329,-0.11231 0.27854,-0.11231 0.179704,0 0.283033,0.11231 0.10333,0.10782 0.10333,0.26506 0,0.15725 -0.10333,0.26507 -0.103329,0.10782 -0.283033,0.10782 -0.175211,0 -0.27854,-0.10782 -0.09884,-0.10782 -0.09884,-0.26057 z m 5.256327,-6.26267 h 0.08087 v 0.471722 h -0.08087 q -0.619977,0 -1.105176,0.202166 -0.480707,0.202167 -0.808666,0.584037 -0.327959,0.377377 -0.498677,0.916485 -0.170719,0.53911 -0.170719,1.20851 v 0.90301 q 0,0.44926 0.1213,0.80866 0.1213,0.35941 0.336944,0.611 0.215645,0.24709 0.498678,0.38187 0.287525,0.13028 0.619977,0.13028 0.327959,0 0.588529,-0.13478 0.26057,-0.13927 0.440273,-0.37737 0.184196,-0.2426 0.278541,-0.56158 0.09884,-0.31897 0.09884,-0.67838 0,-0.34593 -0.08985,-0.65142 -0.08536,-0.30999 -0.265063,-0.5481 -0.179703,-0.23811 -0.449259,-0.37288 -0.269555,-0.13478 -0.633454,-0.13478 -0.408826,0 -0.768233,0.18869 -0.359407,0.18869 -0.588529,0.50317 -0.229122,0.31448 -0.2426,0.68736 l -0.305496,-0.004 q 0.03145,-0.4268 0.193182,-0.76374 0.161733,-0.33694 0.426795,-0.57954 0.269556,-0.2426 0.615485,-0.3684 0.350422,-0.12579 0.754755,-0.12579 0.471721,0 0.822143,0.17072 0.354915,0.17072 0.588529,0.47172 0.238107,0.29651 0.354915,0.68737 0.116807,0.38636 0.116807,0.81765 0,0.47172 -0.134778,0.88055 -0.130285,0.40433 -0.38187,0.70983 -0.251584,0.30549 -0.610992,0.47621 -0.354914,0.17072 -0.808665,0.17072 -0.494185,0 -0.88504,-0.18869 -0.390855,-0.18869 -0.669396,-0.52114 -0.274048,-0.33245 -0.41781,-0.76823 -0.143763,-0.43578 -0.143763,-0.92997 v -0.57056 q 0,-0.83562 0.188688,-1.514 0.193182,-0.682873 0.579544,-1.172565 0.390855,-0.489692 0.974892,-0.750262 0.588529,-0.265063 1.379224,-0.265063 z m 2.63715,-0.309989 v 6.900619 h -0.53911 v -6.900619 z m 3.045975,2.039635 -2.268757,2.255284 -0.970399,0.93445 -0.07637,-0.53012 0.777218,-0.84012 1.859931,-1.819494 z m -0.467229,4.860984 -2.026158,-2.52484 0.292019,-0.46723 2.381071,2.99207 z m 1.904857,-3.85914 v 3.85914 h -0.543603 v -4.860984 h 0.52114 z m -0.10333,1.12764 -0.256077,-0.13477 q 0.02246,-0.43129 0.161733,-0.80867 0.13927,-0.37738 0.38187,-0.6649 0.247092,-0.287529 0.593021,-0.449262 0.350422,-0.161733 0.790696,-0.161733 0.354914,0 0.64244,0.09884 0.287526,0.09435 0.494185,0.301004 0.206659,0.202165 0.314481,0.530125 0.112314,0.32347 0.112314,0.78171 v 3.23916 h -0.534618 v -3.2167 q 0,-0.4852 -0.152748,-0.75924 -0.148255,-0.27405 -0.41781,-0.39086 -0.265063,-0.11681 -0.615485,-0.11681 -0.413318,0 -0.700843,0.17072 -0.283033,0.16623 -0.462737,0.43578 -0.175211,0.26507 -0.26057,0.57056 -0.08087,0.30101 -0.08985,0.57505 z m 3.230171,-0.4223 -0.359407,0.009 q 0.02246,-0.35491 0.161733,-0.67838 0.143763,-0.32346 0.390855,-0.57505 0.247092,-0.256075 0.588529,-0.40433 0.345929,-0.148255 0.777218,-0.148255 0.377377,0 0.673888,0.103329 0.296511,0.09884 0.498677,0.314481 0.206659,0.215645 0.314481,0.552585 0.107823,0.33695 0.107823,0.80867 v 3.17177 h -0.539111 v -3.17626 q 0,-0.51216 -0.152748,-0.79519 -0.148255,-0.28753 -0.413318,-0.39984 -0.265063,-0.11232 -0.619977,-0.11232 -0.350422,0.004 -0.615485,0.13029 -0.265062,0.1213 -0.444766,0.32347 -0.175211,0.19767 -0.269555,0.42679 -0.08985,0.22912 -0.09884,0.44926 z"
       id="text4"
       aria-label="1.6km" />
    <path
       style="fill:none;stroke:#000000;stroke-width:0.508363;stroke-linecap:butt;stroke-linejoin:miter;stroke-dasharray:none;stroke-opacity:1"
       d="M 25.955014,183.58137 H 152.48616"
       id="path4"
       sodipodi:nodetypes="cc" />
  </g>
</svg>
