<?xml version="1.0" encoding="utf-8" standalone="no"?>
<!DOCTYPE svg PUBLIC "-//W3C//DTD SVG 1.1//EN"
  "http://www.w3.org/Graphics/SVG/1.1/DTD/svg11.dtd">
<svg xmlns:xlink="http://www.w3.org/1999/xlink" width="428.605625pt" height="326.35325pt" viewBox="0 0 428.605625 326.35325" xmlns="http://www.w3.org/2000/svg" version="1.1">
 <metadata>
  <rdf:RDF xmlns:dc="http://purl.org/dc/elements/1.1/" xmlns:cc="http://creativecommons.org/ns#" xmlns:rdf="http://www.w3.org/1999/02/22-rdf-syntax-ns#">
   <cc:Work>
    <dc:type rdf:resource="http://purl.org/dc/dcmitype/StillImage"/>
    <dc:date>2026-01-16T16:22:31.268949</dc:date>
    <dc:format>image/svg+xml</dc:format>
    <dc:creator>
     <cc:Agent>
      <dc:title>Matplotlib v3.10.3, https://matplotlib.org/</dc:title>
     </cc:Agent>
    </dc:creator>
   </cc:Work>
  </rdf:RDF>
 </metadata>
 <defs>
  <style type="text/css">*{stroke-linejoin: round; stroke-linecap: butt}</style>
 </defs>
 <g id="figure_1">
  <g id="patch_1">
   <path d="M 0 326.35325 
L 428.605625 326.35325 
L 428.605625 0 
L 0 0 
L 0 326.35325 
z
" style="fill: none"/>
  </g>
  <g id="axes_1">
   <g id="patch_2">
    <path d="M 64.285625 273.312 
L 421.405625 273.312 
L 421.405625 7.2 
L 64.285625 7.2 
L 64.285625 273.312 
z
" style="fill: none"/>
   </g>
   <g id="matplotlib.axis_1">
    <g id="xtick_1">
     <g id="line2d_1">
      <defs>
       <path id="mc798a465a1" d="M 0 0 
L 0 3.5 
" style="stroke: #000000; stroke-width: 0.8"/>
      </defs>
      <g>
       <use xlink:href="#mc798a465a1" x="77.962017" y="273.312" style="stroke: #000000; stroke-width: 0.8"/>
      </g>
     </g>
     <g id="text_1">
      <!-- 0 -->
      <g transform="translate(72.235767 293.989187) scale(0.18 -0.18)">
       <defs>
        <path id="DejaVuSans-30" d="M 2034 4250 
Q 1547 4250 1301 3770 
Q 1056 3291 1056 2328 
Q 1056 1369 1301 889 
Q 1547 409 2034 409 
Q 2525 409 2770 889 
Q 3016 1369 3016 2328 
Q 3016 3291 2770 3770 
Q 2525 4250 2034 4250 
z
M 2034 4750 
Q 2819 4750 3233 4129 
Q 3647 3509 3647 2328 
Q 3647 1150 3233 529 
Q 2819 -91 2034 -91 
Q 1250 -91 836 529 
Q 422 1150 422 2328 
Q 422 3509 836 4129 
Q 1250 4750 2034 4750 
z
" transform="scale(0.015625)"/>
       </defs>
       <use xlink:href="#DejaVuSans-30"/>
      </g>
     </g>
    </g>
    <g id="xtick_2">
     <g id="line2d_2">
      <g>
       <use xlink:href="#mc798a465a1" x="141.870392" y="273.312" style="stroke: #000000; stroke-width: 0.8"/>
      </g>
     </g>
     <g id="text_2">
      <!-- 25 -->
      <g transform="translate(130.417892 293.989187) scale(0.18 -0.18)">
       <defs>
        <path id="DejaVuSans-32" d="M 1228 531 
L 3431 531 
L 3431 0 
L 469 0 
L 469 531 
Q 828 903 1448 1529 
Q 2069 2156 2228 2338 
Q 2531 2678 2651 2914 
Q 2772 3150 2772 3378 
Q 2772 3750 2511 3984 
Q 2250 4219 1831 4219 
Q 1534 4219 1204 4116 
Q 875 4013 500 3803 
L 500 4441 
Q 881 4594 1212 4672 
Q 1544 4750 1819 4750 
Q 2544 4750 2975 4387 
Q 3406 4025 3406 3419 
Q 3406 3131 3298 2873 
Q 3191 2616 2906 2266 
Q 2828 2175 2409 1742 
Q 1991 1309 1228 531 
z
" transform="scale(0.015625)"/>
        <path id="DejaVuSans-35" d="M 691 4666 
L 3169 4666 
L 3169 4134 
L 1269 4134 
L 1269 2991 
Q 1406 3038 1543 3061 
Q 1681 3084 1819 3084 
Q 2600 3084 3056 2656 
Q 3513 2228 3513 1497 
Q 3513 744 3044 326 
Q 2575 -91 1722 -91 
Q 1428 -91 1123 -41 
Q 819 9 494 109 
L 494 744 
Q 775 591 1075 516 
Q 1375 441 1709 441 
Q 2250 441 2565 725 
Q 2881 1009 2881 1497 
Q 2881 1984 2565 2268 
Q 2250 2553 1709 2553 
Q 1456 2553 1204 2497 
Q 953 2441 691 2322 
L 691 4666 
z
" transform="scale(0.015625)"/>
       </defs>
       <use xlink:href="#DejaVuSans-32"/>
       <use xlink:href="#DejaVuSans-35" transform="translate(63.623047 0)"/>
      </g>
     </g>
    </g>
    <g id="xtick_3">
     <g id="line2d_3">
      <g>
       <use xlink:href="#mc798a465a1" x="205.778767" y="273.312" style="stroke: #000000; stroke-width: 0.8"/>
      </g>
     </g>
     <g id="text_3">
      <!-- 50 -->
      <g transform="translate(194.326267 293.989187) scale(0.18 -0.18)">
       <use xlink:href="#DejaVuSans-35"/>
       <use xlink:href="#DejaVuSans-30" transform="translate(63.623047 0)"/>
      </g>
     </g>
    </g>
    <g id="xtick_4">
     <g id="line2d_4">
      <g>
       <use xlink:href="#mc798a465a1" x="269.687143" y="273.312" style="stroke: #000000; stroke-width: 0.8"/>
      </g>
     </g>
     <g id="text_4">
      <!-- 75 -->
      <g transform="translate(258.234643 293.989187) scale(0.18 -0.18)">
       <defs>
        <path id="DejaVuSans-37" d="M 525 4666 
L 3525 4666 
L 3525 4397 
L 1831 0 
L 1172 0 
L 2766 4134 
L 525 4134 
L 525 4666 
z
" transform="scale(0.015625)"/>
       </defs>
       <use xlink:href="#DejaVuSans-37"/>
       <use xlink:href="#DejaVuSans-35" transform="translate(63.623047 0)"/>
      </g>
     </g>
    </g>
    <g id="xtick_5">
     <g id="line2d_5">
      <g>
       <use xlink:href="#mc798a465a1" x="333.595518" y="273.312" style="stroke: #000000; stroke-width: 0.8"/>
      </g>
     </g>
     <g id="text_5">
      <!-- 100 -->
      <g transform="translate(316.416768 293.989187) scale(0.18 -0.18)">
       <defs>
        <path id="DejaVuSans-31" d="M 794 531 
L 1825 531 
L 1825 4091 
L 703 3866 
L 703 4441 
L 1819 4666 
L 2450 4666 
L 2450 531 
L 3481 531 
L 3481 0 
L 794 0 
L 794 531 
z
" transform="scale(0.015625)"/>
       </defs>
       <use xlink:href="#DejaVuSans-31"/>
       <use xlink:href="#DejaVuSans-30" transform="translate(63.623047 0)"/>
       <use xlink:href="#DejaVuSans-30" transform="translate(127.246094 0)"/>
      </g>
     </g>
    </g>
    <g id="xtick_6">
     <g id="line2d_6">
      <g>
       <use xlink:href="#mc798a465a1" x="397.503893" y="273.312" style="stroke: #000000; stroke-width: 0.8"/>
      </g>
     </g>
     <g id="text_6">
      <!-- 125 -->
      <g transform="translate(380.325143 293.989187) scale(0.18 -0.18)">
       <use xlink:href="#DejaVuSans-31"/>
       <use xlink:href="#DejaVuSans-32" transform="translate(63.623047 0)"/>
       <use xlink:href="#DejaVuSans-35" transform="translate(127.246094 0)"/>
      </g>
     </g>
    </g>
    <g id="text_7">
     <!-- $p$ -->
     <g transform="translate(237.085625 315.37325) scale(0.18 -0.18)">
      <defs>
       <path id="DejaVuSans-Oblique-70" d="M 3175 2156 
Q 3175 2616 2975 2859 
Q 2775 3103 2400 3103 
Q 2144 3103 1911 2972 
Q 1678 2841 1497 2591 
Q 1319 2344 1212 1994 
Q 1106 1644 1106 1300 
Q 1106 863 1306 627 
Q 1506 391 1875 391 
Q 2147 391 2380 519 
Q 2613 647 2778 891 
Q 2956 1147 3065 1494 
Q 3175 1841 3175 2156 
z
M 1394 2969 
Q 1625 3272 1939 3428 
Q 2253 3584 2638 3584 
Q 3175 3584 3472 3232 
Q 3769 2881 3769 2247 
Q 3769 1728 3584 1258 
Q 3400 788 3053 416 
Q 2822 169 2531 39 
Q 2241 -91 1919 -91 
Q 1547 -91 1294 64 
Q 1041 219 916 525 
L 556 -1331 
L -19 -1331 
L 922 3500 
L 1497 3500 
L 1394 2969 
z
" transform="scale(0.015625)"/>
      </defs>
      <use xlink:href="#DejaVuSans-Oblique-70"/>
     </g>
    </g>
   </g>
   <g id="matplotlib.axis_2">
    <g id="ytick_1">
     <g id="line2d_7">
      <defs>
       <path id="m1fd3820662" d="M 0 0 
L -3.5 0 
" style="stroke: #000000; stroke-width: 0.8"/>
      </defs>
      <g>
       <use xlink:href="#m1fd3820662" x="64.285625" y="268.180153" style="stroke: #000000; stroke-width: 0.8"/>
      </g>
     </g>
     <g id="text_8">
      <!-- 0.0 -->
      <g transform="translate(28.66 275.018747) scale(0.18 -0.18)">
       <defs>
        <path id="DejaVuSans-2e" d="M 684 794 
L 1344 794 
L 1344 0 
L 684 0 
L 684 794 
z
" transform="scale(0.015625)"/>
       </defs>
       <use xlink:href="#DejaVuSans-30"/>
       <use xlink:href="#DejaVuSans-2e" transform="translate(63.623047 0)"/>
       <use xlink:href="#DejaVuSans-30" transform="translate(95.410156 0)"/>
      </g>
     </g>
    </g>
    <g id="ytick_2">
     <g id="line2d_8">
      <g>
       <use xlink:href="#m1fd3820662" x="64.285625" y="218.403323" style="stroke: #000000; stroke-width: 0.8"/>
      </g>
     </g>
     <g id="text_9">
      <!-- 0.2 -->
      <g transform="translate(28.66 225.241916) scale(0.18 -0.18)">
       <use xlink:href="#DejaVuSans-30"/>
       <use xlink:href="#DejaVuSans-2e" transform="translate(63.623047 0)"/>
       <use xlink:href="#DejaVuSans-32" transform="translate(95.410156 0)"/>
      </g>
     </g>
    </g>
    <g id="ytick_3">
     <g id="line2d_9">
      <g>
       <use xlink:href="#m1fd3820662" x="64.285625" y="168.626492" style="stroke: #000000; stroke-width: 0.8"/>
      </g>
     </g>
     <g id="text_10">
      <!-- 0.4 -->
      <g transform="translate(28.66 175.465086) scale(0.18 -0.18)">
       <defs>
        <path id="DejaVuSans-34" d="M 2419 4116 
L 825 1625 
L 2419 1625 
L 2419 4116 
z
M 2253 4666 
L 3047 4666 
L 3047 1625 
L 3713 1625 
L 3713 1100 
L 3047 1100 
L 3047 0 
L 2419 0 
L 2419 1100 
L 313 1100 
L 313 1709 
L 2253 4666 
z
" transform="scale(0.015625)"/>
       </defs>
       <use xlink:href="#DejaVuSans-30"/>
       <use xlink:href="#DejaVuSans-2e" transform="translate(63.623047 0)"/>
       <use xlink:href="#DejaVuSans-34" transform="translate(95.410156 0)"/>
      </g>
     </g>
    </g>
    <g id="ytick_4">
     <g id="line2d_10">
      <g>
       <use xlink:href="#m1fd3820662" x="64.285625" y="118.849661" style="stroke: #000000; stroke-width: 0.8"/>
      </g>
     </g>
     <g id="text_11">
      <!-- 0.6 -->
      <g transform="translate(28.66 125.688255) scale(0.18 -0.18)">
       <defs>
        <path id="DejaVuSans-36" d="M 2113 2584 
Q 1688 2584 1439 2293 
Q 1191 2003 1191 1497 
Q 1191 994 1439 701 
Q 1688 409 2113 409 
Q 2538 409 2786 701 
Q 3034 994 3034 1497 
Q 3034 2003 2786 2293 
Q 2538 2584 2113 2584 
z
M 3366 4563 
L 3366 3988 
Q 3128 4100 2886 4159 
Q 2644 4219 2406 4219 
Q 1781 4219 1451 3797 
Q 1122 3375 1075 2522 
Q 1259 2794 1537 2939 
Q 1816 3084 2150 3084 
Q 2853 3084 3261 2657 
Q 3669 2231 3669 1497 
Q 3669 778 3244 343 
Q 2819 -91 2113 -91 
Q 1303 -91 875 529 
Q 447 1150 447 2328 
Q 447 3434 972 4092 
Q 1497 4750 2381 4750 
Q 2619 4750 2861 4703 
Q 3103 4656 3366 4563 
z
" transform="scale(0.015625)"/>
       </defs>
       <use xlink:href="#DejaVuSans-30"/>
       <use xlink:href="#DejaVuSans-2e" transform="translate(63.623047 0)"/>
       <use xlink:href="#DejaVuSans-36" transform="translate(95.410156 0)"/>
      </g>
     </g>
    </g>
    <g id="ytick_5">
     <g id="line2d_11">
      <g>
       <use xlink:href="#m1fd3820662" x="64.285625" y="69.072831" style="stroke: #000000; stroke-width: 0.8"/>
      </g>
     </g>
     <g id="text_12">
      <!-- 0.8 -->
      <g transform="translate(28.66 75.911424) scale(0.18 -0.18)">
       <defs>
        <path id="DejaVuSans-38" d="M 2034 2216 
Q 1584 2216 1326 1975 
Q 1069 1734 1069 1313 
Q 1069 891 1326 650 
Q 1584 409 2034 409 
Q 2484 409 2743 651 
Q 3003 894 3003 1313 
Q 3003 1734 2745 1975 
Q 2488 2216 2034 2216 
z
M 1403 2484 
Q 997 2584 770 2862 
Q 544 3141 544 3541 
Q 544 4100 942 4425 
Q 1341 4750 2034 4750 
Q 2731 4750 3128 4425 
Q 3525 4100 3525 3541 
Q 3525 3141 3298 2862 
Q 3072 2584 2669 2484 
Q 3125 2378 3379 2068 
Q 3634 1759 3634 1313 
Q 3634 634 3220 271 
Q 2806 -91 2034 -91 
Q 1263 -91 848 271 
Q 434 634 434 1313 
Q 434 1759 690 2068 
Q 947 2378 1403 2484 
z
M 1172 3481 
Q 1172 3119 1398 2916 
Q 1625 2713 2034 2713 
Q 2441 2713 2670 2916 
Q 2900 3119 2900 3481 
Q 2900 3844 2670 4047 
Q 2441 4250 2034 4250 
Q 1625 4250 1398 4047 
Q 1172 3844 1172 3481 
z
" transform="scale(0.015625)"/>
       </defs>
       <use xlink:href="#DejaVuSans-30"/>
       <use xlink:href="#DejaVuSans-2e" transform="translate(63.623047 0)"/>
       <use xlink:href="#DejaVuSans-38" transform="translate(95.410156 0)"/>
      </g>
     </g>
    </g>
    <g id="ytick_6">
     <g id="line2d_12">
      <g>
       <use xlink:href="#m1fd3820662" x="64.285625" y="19.296" style="stroke: #000000; stroke-width: 0.8"/>
      </g>
     </g>
     <g id="text_13">
      <!-- 1.0 -->
      <g transform="translate(28.66 26.134594) scale(0.18 -0.18)">
       <use xlink:href="#DejaVuSans-31"/>
       <use xlink:href="#DejaVuSans-2e" transform="translate(63.623047 0)"/>
       <use xlink:href="#DejaVuSans-30" transform="translate(95.410156 0)"/>
      </g>
     </g>
    </g>
    <g id="text_14">
     <!-- $E(p)$ -->
     <g transform="translate(20.88 158.706) rotate(-90) scale(0.18 -0.18)">
      <defs>
       <path id="DejaVuSans-Oblique-45" d="M 1081 4666 
L 4031 4666 
L 3928 4134 
L 1606 4134 
L 1338 2753 
L 3566 2753 
L 3463 2222 
L 1234 2222 
L 909 531 
L 3284 531 
L 3181 0 
L 172 0 
L 1081 4666 
z
" transform="scale(0.015625)"/>
       <path id="DejaVuSans-28" d="M 1984 4856 
Q 1566 4138 1362 3434 
Q 1159 2731 1159 2009 
Q 1159 1288 1364 580 
Q 1569 -128 1984 -844 
L 1484 -844 
Q 1016 -109 783 600 
Q 550 1309 550 2009 
Q 550 2706 781 3412 
Q 1013 4119 1484 4856 
L 1984 4856 
z
" transform="scale(0.015625)"/>
       <path id="DejaVuSans-29" d="M 513 4856 
L 1013 4856 
Q 1481 4119 1714 3412 
Q 1947 2706 1947 2009 
Q 1947 1309 1714 600 
Q 1481 -109 1013 -844 
L 513 -844 
Q 928 -128 1133 580 
Q 1338 1288 1338 2009 
Q 1338 2731 1133 3434 
Q 928 4138 513 4856 
z
" transform="scale(0.015625)"/>
      </defs>
      <use xlink:href="#DejaVuSans-Oblique-45" transform="translate(0 0.125)"/>
      <use xlink:href="#DejaVuSans-28" transform="translate(63.183594 0.125)"/>
      <use xlink:href="#DejaVuSans-Oblique-70" transform="translate(102.197266 0.125)"/>
      <use xlink:href="#DejaVuSans-29" transform="translate(165.673828 0.125)"/>
     </g>
    </g>
   </g>
   <g id="line2d_13">
    <path d="M 83.074687 273.312 
L 83.074687 7.2 
" clip-path="url(#p0e857eef4f)" style="fill: none; stroke-dasharray: 5.55,2.4; stroke-dashoffset: 0; stroke: #ffc844; stroke-width: 1.5"/>
   </g>
   <g id="line2d_14">
    <path d="M 85.631022 273.312 
L 85.631022 7.2 
" clip-path="url(#p0e857eef4f)" style="fill: none; stroke-dasharray: 5.55,2.4; stroke-dashoffset: 0; stroke: #e35555; stroke-width: 1.5"/>
   </g>
   <g id="line2d_15">
    <path d="M 80.518352 19.296 
L 83.074687 113.508875 
L 85.631022 163.283014 
L 88.187357 190.844514 
L 90.743692 206.135879 
L 93.300027 217.05753 
L 95.856362 224.75718 
L 98.412697 230.809201 
L 103.525367 236.390365 
L 106.081702 238.810083 
L 108.638037 240.894316 
L 111.194372 242.726092 
L 113.750707 244.400118 
L 118.863377 247.324935 
L 121.419712 247.62525 
L 123.976047 247.667723 
L 139.314057 249.002436 
L 141.870392 249.022623 
L 152.095732 249.789699 
L 154.652067 250.138365 
L 200.666097 253.431649 
L 205.778767 253.644656 
L 208.335102 253.785963 
L 210.891437 254.086462 
L 218.560442 254.416432 
L 223.673112 254.759817 
L 226.229447 254.851142 
L 228.785782 255.077058 
L 233.898452 255.324642 
L 269.687143 257.253532 
L 272.243478 257.253805 
L 287.581488 258.053294 
L 300.363163 258.41246 
L 302.919498 258.579492 
L 308.032168 258.73805 
L 318.257508 259.122219 
L 333.595518 259.764128 
L 341.264523 259.945792 
L 354.046198 260.280998 
L 356.602533 260.29184 
L 361.715203 260.524394 
L 382.165883 260.968919 
L 387.278553 260.960456 
L 405.172898 261.216 
L 405.172898 261.216 
" clip-path="url(#p0e857eef4f)" style="fill: none; stroke: #000000; stroke-width: 2; stroke-linecap: square"/>
    <defs>
     <path id="me5517d3dd2" d="M 0 1.5 
C 0.397805 1.5 0.77937 1.341951 1.06066 1.06066 
C 1.341951 0.77937 1.5 0.397805 1.5 0 
C 1.5 -0.397805 1.341951 -0.77937 1.06066 -1.06066 
C 0.77937 -1.341951 0.397805 -1.5 0 -1.5 
C -0.397805 -1.5 -0.77937 -1.341951 -1.06066 -1.06066 
C -1.341951 -0.77937 -1.5 -0.397805 -1.5 0 
C -1.5 0.397805 -1.341951 0.77937 -1.06066 1.06066 
C -0.77937 1.341951 -0.397805 1.5 0 1.5 
z
" style="stroke: #000000"/>
    </defs>
    <g clip-path="url(#p0e857eef4f)">
     <use xlink:href="#me5517d3dd2" x="80.518352" y="19.296" style="stroke: #000000"/>
     <use xlink:href="#me5517d3dd2" x="83.074687" y="113.508875" style="stroke: #000000"/>
     <use xlink:href="#me5517d3dd2" x="85.631022" y="163.283014" style="stroke: #000000"/>
     <use xlink:href="#me5517d3dd2" x="88.187357" y="190.844514" style="stroke: #000000"/>
     <use xlink:href="#me5517d3dd2" x="90.743692" y="206.135879" style="stroke: #000000"/>
     <use xlink:href="#me5517d3dd2" x="93.300027" y="217.05753" style="stroke: #000000"/>
     <use xlink:href="#me5517d3dd2" x="95.856362" y="224.75718" style="stroke: #000000"/>
     <use xlink:href="#me5517d3dd2" x="98.412697" y="230.809201" style="stroke: #000000"/>
     <use xlink:href="#me5517d3dd2" x="100.969032" y="233.662081" style="stroke: #000000"/>
     <use xlink:href="#me5517d3dd2" x="103.525367" y="236.390365" style="stroke: #000000"/>
     <use xlink:href="#me5517d3dd2" x="106.081702" y="238.810083" style="stroke: #000000"/>
     <use xlink:href="#me5517d3dd2" x="108.638037" y="240.894316" style="stroke: #000000"/>
     <use xlink:href="#me5517d3dd2" x="111.194372" y="242.726092" style="stroke: #000000"/>
     <use xlink:href="#me5517d3dd2" x="113.750707" y="244.400118" style="stroke: #000000"/>
     <use xlink:href="#me5517d3dd2" x="116.307042" y="245.91758" style="stroke: #000000"/>
     <use xlink:href="#me5517d3dd2" x="118.863377" y="247.324935" style="stroke: #000000"/>
     <use xlink:href="#me5517d3dd2" x="121.419712" y="247.62525" style="stroke: #000000"/>
     <use xlink:href="#me5517d3dd2" x="123.976047" y="247.667723" style="stroke: #000000"/>
     <use xlink:href="#me5517d3dd2" x="126.532382" y="247.889742" style="stroke: #000000"/>
     <use xlink:href="#me5517d3dd2" x="129.088717" y="248.162202" style="stroke: #000000"/>
     <use xlink:href="#me5517d3dd2" x="131.645052" y="248.352122" style="stroke: #000000"/>
     <use xlink:href="#me5517d3dd2" x="134.201387" y="248.580777" style="stroke: #000000"/>
     <use xlink:href="#me5517d3dd2" x="136.757722" y="248.860781" style="stroke: #000000"/>
     <use xlink:href="#me5517d3dd2" x="139.314057" y="249.002436" style="stroke: #000000"/>
     <use xlink:href="#me5517d3dd2" x="141.870392" y="249.022623" style="stroke: #000000"/>
     <use xlink:href="#me5517d3dd2" x="144.426727" y="249.218889" style="stroke: #000000"/>
     <use xlink:href="#me5517d3dd2" x="146.983062" y="249.412787" style="stroke: #000000"/>
     <use xlink:href="#me5517d3dd2" x="149.539397" y="249.718966" style="stroke: #000000"/>
     <use xlink:href="#me5517d3dd2" x="152.095732" y="249.789699" style="stroke: #000000"/>
     <use xlink:href="#me5517d3dd2" x="154.652067" y="250.138365" style="stroke: #000000"/>
     <use xlink:href="#me5517d3dd2" x="157.208402" y="250.322036" style="stroke: #000000"/>
     <use xlink:href="#me5517d3dd2" x="159.764737" y="250.499142" style="stroke: #000000"/>
     <use xlink:href="#me5517d3dd2" x="162.321072" y="250.648879" style="stroke: #000000"/>
     <use xlink:href="#me5517d3dd2" x="164.877407" y="250.88969" style="stroke: #000000"/>
     <use xlink:href="#me5517d3dd2" x="167.433742" y="251.107975" style="stroke: #000000"/>
     <use xlink:href="#me5517d3dd2" x="169.990077" y="251.210779" style="stroke: #000000"/>
     <use xlink:href="#me5517d3dd2" x="172.546412" y="251.411431" style="stroke: #000000"/>
     <use xlink:href="#me5517d3dd2" x="175.102747" y="251.545539" style="stroke: #000000"/>
     <use xlink:href="#me5517d3dd2" x="177.659082" y="251.830099" style="stroke: #000000"/>
     <use xlink:href="#me5517d3dd2" x="180.215417" y="252.002683" style="stroke: #000000"/>
     <use xlink:href="#me5517d3dd2" x="182.771752" y="252.062973" style="stroke: #000000"/>
     <use xlink:href="#me5517d3dd2" x="185.328087" y="252.253963" style="stroke: #000000"/>
     <use xlink:href="#me5517d3dd2" x="187.884422" y="252.528464" style="stroke: #000000"/>
     <use xlink:href="#me5517d3dd2" x="190.440757" y="252.693283" style="stroke: #000000"/>
     <use xlink:href="#me5517d3dd2" x="192.997092" y="252.894355" style="stroke: #000000"/>
     <use xlink:href="#me5517d3dd2" x="195.553427" y="253.059976" style="stroke: #000000"/>
     <use xlink:href="#me5517d3dd2" x="198.109762" y="253.190734" style="stroke: #000000"/>
     <use xlink:href="#me5517d3dd2" x="200.666097" y="253.431649" style="stroke: #000000"/>
     <use xlink:href="#me5517d3dd2" x="203.222432" y="253.494624" style="stroke: #000000"/>
     <use xlink:href="#me5517d3dd2" x="205.778767" y="253.644656" style="stroke: #000000"/>
     <use xlink:href="#me5517d3dd2" x="208.335102" y="253.785963" style="stroke: #000000"/>
     <use xlink:href="#me5517d3dd2" x="210.891437" y="254.086462" style="stroke: #000000"/>
     <use xlink:href="#me5517d3dd2" x="213.447772" y="254.188043" style="stroke: #000000"/>
     <use xlink:href="#me5517d3dd2" x="216.004107" y="254.258062" style="stroke: #000000"/>
     <use xlink:href="#me5517d3dd2" x="218.560442" y="254.416432" style="stroke: #000000"/>
     <use xlink:href="#me5517d3dd2" x="221.116777" y="254.638744" style="stroke: #000000"/>
     <use xlink:href="#me5517d3dd2" x="223.673112" y="254.759817" style="stroke: #000000"/>
     <use xlink:href="#me5517d3dd2" x="226.229447" y="254.851142" style="stroke: #000000"/>
     <use xlink:href="#me5517d3dd2" x="228.785782" y="255.077058" style="stroke: #000000"/>
     <use xlink:href="#me5517d3dd2" x="231.342117" y="255.157145" style="stroke: #000000"/>
     <use xlink:href="#me5517d3dd2" x="233.898452" y="255.324642" style="stroke: #000000"/>
     <use xlink:href="#me5517d3dd2" x="236.454787" y="255.463498" style="stroke: #000000"/>
     <use xlink:href="#me5517d3dd2" x="239.011122" y="255.642718" style="stroke: #000000"/>
     <use xlink:href="#me5517d3dd2" x="241.567457" y="255.771298" style="stroke: #000000"/>
     <use xlink:href="#me5517d3dd2" x="244.123793" y="255.962204" style="stroke: #000000"/>
     <use xlink:href="#me5517d3dd2" x="246.680128" y="256.081331" style="stroke: #000000"/>
     <use xlink:href="#me5517d3dd2" x="249.236463" y="256.196185" style="stroke: #000000"/>
     <use xlink:href="#me5517d3dd2" x="251.792798" y="256.306942" style="stroke: #000000"/>
     <use xlink:href="#me5517d3dd2" x="254.349133" y="256.457349" style="stroke: #000000"/>
     <use xlink:href="#me5517d3dd2" x="256.905468" y="256.646177" style="stroke: #000000"/>
     <use xlink:href="#me5517d3dd2" x="259.461803" y="256.745217" style="stroke: #000000"/>
     <use xlink:href="#me5517d3dd2" x="262.018138" y="256.81957" style="stroke: #000000"/>
     <use xlink:href="#me5517d3dd2" x="264.574473" y="256.91189" style="stroke: #000000"/>
     <use xlink:href="#me5517d3dd2" x="267.130808" y="257.085058" style="stroke: #000000"/>
     <use xlink:href="#me5517d3dd2" x="269.687143" y="257.253532" style="stroke: #000000"/>
     <use xlink:href="#me5517d3dd2" x="272.243478" y="257.253805" style="stroke: #000000"/>
     <use xlink:href="#me5517d3dd2" x="274.799813" y="257.395706" style="stroke: #000000"/>
     <use xlink:href="#me5517d3dd2" x="277.356148" y="257.594343" style="stroke: #000000"/>
     <use xlink:href="#me5517d3dd2" x="279.912483" y="257.66873" style="stroke: #000000"/>
     <use xlink:href="#me5517d3dd2" x="282.468818" y="257.858989" style="stroke: #000000"/>
     <use xlink:href="#me5517d3dd2" x="285.025153" y="257.908744" style="stroke: #000000"/>
     <use xlink:href="#me5517d3dd2" x="287.581488" y="258.053294" style="stroke: #000000"/>
     <use xlink:href="#me5517d3dd2" x="290.137823" y="258.117915" style="stroke: #000000"/>
     <use xlink:href="#me5517d3dd2" x="292.694158" y="258.161076" style="stroke: #000000"/>
     <use xlink:href="#me5517d3dd2" x="295.250493" y="258.259833" style="stroke: #000000"/>
     <use xlink:href="#me5517d3dd2" x="297.806828" y="258.337182" style="stroke: #000000"/>
     <use xlink:href="#me5517d3dd2" x="300.363163" y="258.41246" style="stroke: #000000"/>
     <use xlink:href="#me5517d3dd2" x="302.919498" y="258.579492" style="stroke: #000000"/>
     <use xlink:href="#me5517d3dd2" x="305.475833" y="258.631959" style="stroke: #000000"/>
     <use xlink:href="#me5517d3dd2" x="308.032168" y="258.73805" style="stroke: #000000"/>
     <use xlink:href="#me5517d3dd2" x="310.588503" y="258.859942" style="stroke: #000000"/>
     <use xlink:href="#me5517d3dd2" x="313.144838" y="258.996912" style="stroke: #000000"/>
     <use xlink:href="#me5517d3dd2" x="315.701173" y="259.060377" style="stroke: #000000"/>
     <use xlink:href="#me5517d3dd2" x="318.257508" y="259.122219" style="stroke: #000000"/>
     <use xlink:href="#me5517d3dd2" x="320.813843" y="259.235003" style="stroke: #000000"/>
     <use xlink:href="#me5517d3dd2" x="323.370178" y="259.379547" style="stroke: #000000"/>
     <use xlink:href="#me5517d3dd2" x="325.926513" y="259.453395" style="stroke: #000000"/>
     <use xlink:href="#me5517d3dd2" x="328.482848" y="259.542444" style="stroke: #000000"/>
     <use xlink:href="#me5517d3dd2" x="331.039183" y="259.613091" style="stroke: #000000"/>
     <use xlink:href="#me5517d3dd2" x="333.595518" y="259.764128" style="stroke: #000000"/>
     <use xlink:href="#me5517d3dd2" x="336.151853" y="259.799009" style="stroke: #000000"/>
     <use xlink:href="#me5517d3dd2" x="338.708188" y="259.816342" style="stroke: #000000"/>
     <use xlink:href="#me5517d3dd2" x="341.264523" y="259.945792" style="stroke: #000000"/>
     <use xlink:href="#me5517d3dd2" x="343.820858" y="260.024969" style="stroke: #000000"/>
     <use xlink:href="#me5517d3dd2" x="346.377193" y="260.086922" style="stroke: #000000"/>
     <use xlink:href="#me5517d3dd2" x="348.933528" y="260.17884" style="stroke: #000000"/>
     <use xlink:href="#me5517d3dd2" x="351.489863" y="260.175907" style="stroke: #000000"/>
     <use xlink:href="#me5517d3dd2" x="354.046198" y="260.280998" style="stroke: #000000"/>
     <use xlink:href="#me5517d3dd2" x="356.602533" y="260.29184" style="stroke: #000000"/>
     <use xlink:href="#me5517d3dd2" x="359.158868" y="260.439737" style="stroke: #000000"/>
     <use xlink:href="#me5517d3dd2" x="361.715203" y="260.524394" style="stroke: #000000"/>
     <use xlink:href="#me5517d3dd2" x="364.271538" y="260.592749" style="stroke: #000000"/>
     <use xlink:href="#me5517d3dd2" x="366.827873" y="260.600912" style="stroke: #000000"/>
     <use xlink:href="#me5517d3dd2" x="369.384208" y="260.754754" style="stroke: #000000"/>
     <use xlink:href="#me5517d3dd2" x="371.940543" y="260.747299" style="stroke: #000000"/>
     <use xlink:href="#me5517d3dd2" x="374.496878" y="260.910953" style="stroke: #000000"/>
     <use xlink:href="#me5517d3dd2" x="377.053213" y="260.860031" style="stroke: #000000"/>
     <use xlink:href="#me5517d3dd2" x="379.609548" y="260.922066" style="stroke: #000000"/>
     <use xlink:href="#me5517d3dd2" x="382.165883" y="260.968919" style="stroke: #000000"/>
     <use xlink:href="#me5517d3dd2" x="384.722218" y="260.914822" style="stroke: #000000"/>
     <use xlink:href="#me5517d3dd2" x="387.278553" y="260.960456" style="stroke: #000000"/>
     <use xlink:href="#me5517d3dd2" x="389.834888" y="260.990877" style="stroke: #000000"/>
     <use xlink:href="#me5517d3dd2" x="392.391223" y="261.006109" style="stroke: #000000"/>
     <use xlink:href="#me5517d3dd2" x="394.947558" y="261.035095" style="stroke: #000000"/>
     <use xlink:href="#me5517d3dd2" x="397.503893" y="261.063384" style="stroke: #000000"/>
     <use xlink:href="#me5517d3dd2" x="400.060228" y="261.134217" style="stroke: #000000"/>
     <use xlink:href="#me5517d3dd2" x="402.616563" y="261.14681" style="stroke: #000000"/>
     <use xlink:href="#me5517d3dd2" x="405.172898" y="261.216" style="stroke: #000000"/>
    </g>
   </g>
   <g id="patch_3">
    <path d="M 64.285625 273.312 
L 64.285625 7.2 
" style="fill: none; stroke: #000000; stroke-width: 0.8; stroke-linejoin: miter; stroke-linecap: square"/>
   </g>
   <g id="patch_4">
    <path d="M 421.405625 273.312 
L 421.405625 7.2 
" style="fill: none; stroke: #000000; stroke-width: 0.8; stroke-linejoin: miter; stroke-linecap: square"/>
   </g>
   <g id="patch_5">
    <path d="M 64.285625 273.312 
L 421.405625 273.312 
" style="fill: none; stroke: #000000; stroke-width: 0.8; stroke-linejoin: miter; stroke-linecap: square"/>
   </g>
   <g id="patch_6">
    <path d="M 64.285625 7.2 
L 421.405625 7.2 
" style="fill: none; stroke: #000000; stroke-width: 0.8; stroke-linejoin: miter; stroke-linecap: square"/>
   </g>
  </g>
 </g>
 <defs>
  <clipPath id="p0e857eef4f">
   <rect x="64.285625" y="7.2" width="357.12" height="266.112"/>
  </clipPath>
 </defs>
</svg>
