<?xml version="1.0" encoding="utf-8" standalone="no"?>
<!DOCTYPE svg PUBLIC "-//W3C//DTD SVG 1.1//EN"
  "http://www.w3.org/Graphics/SVG/1.1/DTD/svg11.dtd">
<svg xmlns:xlink="http://www.w3.org/1999/xlink" width="422.885pt" height="329.694896pt" viewBox="0 0 422.885 329.694896" xmlns="http://www.w3.org/2000/svg" version="1.1">
 <metadata>
  <rdf:RDF xmlns:dc="http://purl.org/dc/elements/1.1/" xmlns:cc="http://creativecommons.org/ns#" xmlns:rdf="http://www.w3.org/1999/02/22-rdf-syntax-ns#">
   <cc:Work>
    <dc:type rdf:resource="http://purl.org/dc/dcmitype/StillImage"/>
    <dc:date>2026-01-16T16:22:31.502643</dc:date>
    <dc:format>image/svg+xml</dc:format>
    <dc:creator>
     <cc:Agent>
      <dc:title>Matplotlib v3.10.3, https://matplotlib.org/</dc:title>
     </cc:Agent>
    </dc:creator>
   </cc:Work>
  </rdf:RDF>
 </metadata>
 <defs>
  <style type="text/css">*{stroke-linejoin: round; stroke-linecap: butt}</style>
 </defs>
 <g id="figure_1">
  <g id="patch_1">
   <path d="M 0 329.694896 
L 422.885 329.694896 
L 422.885 0 
L 0 0 
L 0 329.694896 
z
" style="fill: none"/>
  </g>
  <g id="axes_1">
   <g id="patch_2">
    <path d="M 58.565 276.653646 
L 415.685 276.653646 
L 415.685 10.541646 
L 58.565 10.541646 
L 58.565 276.653646 
z
" style="fill: none"/>
   </g>
   <g id="matplotlib.axis_1">
    <g id="xtick_1">
     <g id="line2d_1">
      <defs>
       <path id="m4c48e74546" d="M 0 0 
L 0 3.5 
" style="stroke: #000000; stroke-width: 0.8"/>
      </defs>
      <g>
       <use xlink:href="#m4c48e74546" x="72.241392" y="276.653646" style="stroke: #000000; stroke-width: 0.8"/>
      </g>
     </g>
     <g id="text_1">
      <!-- 0 -->
      <g transform="translate(66.515142 297.330833) scale(0.18 -0.18)">
       <defs>
        <path id="DejaVuSans-30" d="M 2034 4250 
Q 1547 4250 1301 3770 
Q 1056 3291 1056 2328 
Q 1056 1369 1301 889 
Q 1547 409 2034 409 
Q 2525 409 2770 889 
Q 3016 1369 3016 2328 
Q 3016 3291 2770 3770 
Q 2525 4250 2034 4250 
z
M 2034 4750 
Q 2819 4750 3233 4129 
Q 3647 3509 3647 2328 
Q 3647 1150 3233 529 
Q 2819 -91 2034 -91 
Q 1250 -91 836 529 
Q 422 1150 422 2328 
Q 422 3509 836 4129 
Q 1250 4750 2034 4750 
z
" transform="scale(0.015625)"/>
       </defs>
       <use xlink:href="#DejaVuSans-30"/>
      </g>
     </g>
    </g>
    <g id="xtick_2">
     <g id="line2d_2">
      <g>
       <use xlink:href="#m4c48e74546" x="136.149767" y="276.653646" style="stroke: #000000; stroke-width: 0.8"/>
      </g>
     </g>
     <g id="text_2">
      <!-- 25 -->
      <g transform="translate(124.697267 297.330833) scale(0.18 -0.18)">
       <defs>
        <path id="DejaVuSans-32" d="M 1228 531 
L 3431 531 
L 3431 0 
L 469 0 
L 469 531 
Q 828 903 1448 1529 
Q 2069 2156 2228 2338 
Q 2531 2678 2651 2914 
Q 2772 3150 2772 3378 
Q 2772 3750 2511 3984 
Q 2250 4219 1831 4219 
Q 1534 4219 1204 4116 
Q 875 4013 500 3803 
L 500 4441 
Q 881 4594 1212 4672 
Q 1544 4750 1819 4750 
Q 2544 4750 2975 4387 
Q 3406 4025 3406 3419 
Q 3406 3131 3298 2873 
Q 3191 2616 2906 2266 
Q 2828 2175 2409 1742 
Q 1991 1309 1228 531 
z
" transform="scale(0.015625)"/>
        <path id="DejaVuSans-35" d="M 691 4666 
L 3169 4666 
L 3169 4134 
L 1269 4134 
L 1269 2991 
Q 1406 3038 1543 3061 
Q 1681 3084 1819 3084 
Q 2600 3084 3056 2656 
Q 3513 2228 3513 1497 
Q 3513 744 3044 326 
Q 2575 -91 1722 -91 
Q 1428 -91 1123 -41 
Q 819 9 494 109 
L 494 744 
Q 775 591 1075 516 
Q 1375 441 1709 441 
Q 2250 441 2565 725 
Q 2881 1009 2881 1497 
Q 2881 1984 2565 2268 
Q 2250 2553 1709 2553 
Q 1456 2553 1204 2497 
Q 953 2441 691 2322 
L 691 4666 
z
" transform="scale(0.015625)"/>
       </defs>
       <use xlink:href="#DejaVuSans-32"/>
       <use xlink:href="#DejaVuSans-35" transform="translate(63.623047 0)"/>
      </g>
     </g>
    </g>
    <g id="xtick_3">
     <g id="line2d_3">
      <g>
       <use xlink:href="#m4c48e74546" x="200.058142" y="276.653646" style="stroke: #000000; stroke-width: 0.8"/>
      </g>
     </g>
     <g id="text_3">
      <!-- 50 -->
      <g transform="translate(188.605642 297.330833) scale(0.18 -0.18)">
       <use xlink:href="#DejaVuSans-35"/>
       <use xlink:href="#DejaVuSans-30" transform="translate(63.623047 0)"/>
      </g>
     </g>
    </g>
    <g id="xtick_4">
     <g id="line2d_4">
      <g>
       <use xlink:href="#m4c48e74546" x="263.966518" y="276.653646" style="stroke: #000000; stroke-width: 0.8"/>
      </g>
     </g>
     <g id="text_4">
      <!-- 75 -->
      <g transform="translate(252.514018 297.330833) scale(0.18 -0.18)">
       <defs>
        <path id="DejaVuSans-37" d="M 525 4666 
L 3525 4666 
L 3525 4397 
L 1831 0 
L 1172 0 
L 2766 4134 
L 525 4134 
L 525 4666 
z
" transform="scale(0.015625)"/>
       </defs>
       <use xlink:href="#DejaVuSans-37"/>
       <use xlink:href="#DejaVuSans-35" transform="translate(63.623047 0)"/>
      </g>
     </g>
    </g>
    <g id="xtick_5">
     <g id="line2d_5">
      <g>
       <use xlink:href="#m4c48e74546" x="327.874893" y="276.653646" style="stroke: #000000; stroke-width: 0.8"/>
      </g>
     </g>
     <g id="text_5">
      <!-- 100 -->
      <g transform="translate(310.696143 297.330833) scale(0.18 -0.18)">
       <defs>
        <path id="DejaVuSans-31" d="M 794 531 
L 1825 531 
L 1825 4091 
L 703 3866 
L 703 4441 
L 1819 4666 
L 2450 4666 
L 2450 531 
L 3481 531 
L 3481 0 
L 794 0 
L 794 531 
z
" transform="scale(0.015625)"/>
       </defs>
       <use xlink:href="#DejaVuSans-31"/>
       <use xlink:href="#DejaVuSans-30" transform="translate(63.623047 0)"/>
       <use xlink:href="#DejaVuSans-30" transform="translate(127.246094 0)"/>
      </g>
     </g>
    </g>
    <g id="xtick_6">
     <g id="line2d_6">
      <g>
       <use xlink:href="#m4c48e74546" x="391.783268" y="276.653646" style="stroke: #000000; stroke-width: 0.8"/>
      </g>
     </g>
     <g id="text_6">
      <!-- 125 -->
      <g transform="translate(374.604518 297.330833) scale(0.18 -0.18)">
       <use xlink:href="#DejaVuSans-31"/>
       <use xlink:href="#DejaVuSans-32" transform="translate(63.623047 0)"/>
       <use xlink:href="#DejaVuSans-35" transform="translate(127.246094 0)"/>
      </g>
     </g>
    </g>
    <g id="text_7">
     <!-- $p$ -->
     <g transform="translate(231.365 318.714896) scale(0.18 -0.18)">
      <defs>
       <path id="DejaVuSans-Oblique-70" d="M 3175 2156 
Q 3175 2616 2975 2859 
Q 2775 3103 2400 3103 
Q 2144 3103 1911 2972 
Q 1678 2841 1497 2591 
Q 1319 2344 1212 1994 
Q 1106 1644 1106 1300 
Q 1106 863 1306 627 
Q 1506 391 1875 391 
Q 2147 391 2380 519 
Q 2613 647 2778 891 
Q 2956 1147 3065 1494 
Q 3175 1841 3175 2156 
z
M 1394 2969 
Q 1625 3272 1939 3428 
Q 2253 3584 2638 3584 
Q 3175 3584 3472 3232 
Q 3769 2881 3769 2247 
Q 3769 1728 3584 1258 
Q 3400 788 3053 416 
Q 2822 169 2531 39 
Q 2241 -91 1919 -91 
Q 1547 -91 1294 64 
Q 1041 219 916 525 
L 556 -1331 
L -19 -1331 
L 922 3500 
L 1497 3500 
L 1394 2969 
z
" transform="scale(0.015625)"/>
      </defs>
      <use xlink:href="#DejaVuSans-Oblique-70"/>
     </g>
    </g>
   </g>
   <g id="matplotlib.axis_2">
    <g id="ytick_1">
     <g id="line2d_7">
      <defs>
       <path id="m6ee4b23749" d="M 0 0 
L -3.5 0 
" style="stroke: #000000; stroke-width: 0.8"/>
      </defs>
      <g>
       <use xlink:href="#m6ee4b23749" x="58.565" y="243.346651" style="stroke: #000000; stroke-width: 0.8"/>
      </g>
     </g>
     <g id="text_8">
      <!-- 6 -->
      <g transform="translate(40.1125 250.185244) scale(0.18 -0.18)">
       <defs>
        <path id="DejaVuSans-36" d="M 2113 2584 
Q 1688 2584 1439 2293 
Q 1191 2003 1191 1497 
Q 1191 994 1439 701 
Q 1688 409 2113 409 
Q 2538 409 2786 701 
Q 3034 994 3034 1497 
Q 3034 2003 2786 2293 
Q 2538 2584 2113 2584 
z
M 3366 4563 
L 3366 3988 
Q 3128 4100 2886 4159 
Q 2644 4219 2406 4219 
Q 1781 4219 1451 3797 
Q 1122 3375 1075 2522 
Q 1259 2794 1537 2939 
Q 1816 3084 2150 3084 
Q 2853 3084 3261 2657 
Q 3669 2231 3669 1497 
Q 3669 778 3244 343 
Q 2819 -91 2113 -91 
Q 1303 -91 875 529 
Q 447 1150 447 2328 
Q 447 3434 972 4092 
Q 1497 4750 2381 4750 
Q 2619 4750 2861 4703 
Q 3103 4656 3366 4563 
z
" transform="scale(0.015625)"/>
       </defs>
       <use xlink:href="#DejaVuSans-36"/>
      </g>
     </g>
    </g>
    <g id="ytick_2">
     <g id="line2d_8">
      <g>
       <use xlink:href="#m6ee4b23749" x="58.565" y="205.128641" style="stroke: #000000; stroke-width: 0.8"/>
      </g>
     </g>
     <g id="text_9">
      <!-- 8 -->
      <g transform="translate(40.1125 211.967235) scale(0.18 -0.18)">
       <defs>
        <path id="DejaVuSans-38" d="M 2034 2216 
Q 1584 2216 1326 1975 
Q 1069 1734 1069 1313 
Q 1069 891 1326 650 
Q 1584 409 2034 409 
Q 2484 409 2743 651 
Q 3003 894 3003 1313 
Q 3003 1734 2745 1975 
Q 2488 2216 2034 2216 
z
M 1403 2484 
Q 997 2584 770 2862 
Q 544 3141 544 3541 
Q 544 4100 942 4425 
Q 1341 4750 2034 4750 
Q 2731 4750 3128 4425 
Q 3525 4100 3525 3541 
Q 3525 3141 3298 2862 
Q 3072 2584 2669 2484 
Q 3125 2378 3379 2068 
Q 3634 1759 3634 1313 
Q 3634 634 3220 271 
Q 2806 -91 2034 -91 
Q 1263 -91 848 271 
Q 434 634 434 1313 
Q 434 1759 690 2068 
Q 947 2378 1403 2484 
z
M 1172 3481 
Q 1172 3119 1398 2916 
Q 1625 2713 2034 2713 
Q 2441 2713 2670 2916 
Q 2900 3119 2900 3481 
Q 2900 3844 2670 4047 
Q 2441 4250 2034 4250 
Q 1625 4250 1398 4047 
Q 1172 3844 1172 3481 
z
" transform="scale(0.015625)"/>
       </defs>
       <use xlink:href="#DejaVuSans-38"/>
      </g>
     </g>
    </g>
    <g id="ytick_3">
     <g id="line2d_9">
      <g>
       <use xlink:href="#m6ee4b23749" x="58.565" y="166.910632" style="stroke: #000000; stroke-width: 0.8"/>
      </g>
     </g>
     <g id="text_10">
      <!-- 10 -->
      <g transform="translate(28.66 173.749225) scale(0.18 -0.18)">
       <use xlink:href="#DejaVuSans-31"/>
       <use xlink:href="#DejaVuSans-30" transform="translate(63.623047 0)"/>
      </g>
     </g>
    </g>
    <g id="ytick_4">
     <g id="line2d_10">
      <g>
       <use xlink:href="#m6ee4b23749" x="58.565" y="128.692622" style="stroke: #000000; stroke-width: 0.8"/>
      </g>
     </g>
     <g id="text_11">
      <!-- 12 -->
      <g transform="translate(28.66 135.531216) scale(0.18 -0.18)">
       <use xlink:href="#DejaVuSans-31"/>
       <use xlink:href="#DejaVuSans-32" transform="translate(63.623047 0)"/>
      </g>
     </g>
    </g>
    <g id="ytick_5">
     <g id="line2d_11">
      <g>
       <use xlink:href="#m6ee4b23749" x="58.565" y="90.474613" style="stroke: #000000; stroke-width: 0.8"/>
      </g>
     </g>
     <g id="text_12">
      <!-- 14 -->
      <g transform="translate(28.66 97.313206) scale(0.18 -0.18)">
       <defs>
        <path id="DejaVuSans-34" d="M 2419 4116 
L 825 1625 
L 2419 1625 
L 2419 4116 
z
M 2253 4666 
L 3047 4666 
L 3047 1625 
L 3713 1625 
L 3713 1100 
L 3047 1100 
L 3047 0 
L 2419 0 
L 2419 1100 
L 313 1100 
L 313 1709 
L 2253 4666 
z
" transform="scale(0.015625)"/>
       </defs>
       <use xlink:href="#DejaVuSans-31"/>
       <use xlink:href="#DejaVuSans-34" transform="translate(63.623047 0)"/>
      </g>
     </g>
    </g>
    <g id="ytick_6">
     <g id="line2d_12">
      <g>
       <use xlink:href="#m6ee4b23749" x="58.565" y="52.256603" style="stroke: #000000; stroke-width: 0.8"/>
      </g>
     </g>
     <g id="text_13">
      <!-- 16 -->
      <g transform="translate(28.66 59.095197) scale(0.18 -0.18)">
       <use xlink:href="#DejaVuSans-31"/>
       <use xlink:href="#DejaVuSans-36" transform="translate(63.623047 0)"/>
      </g>
     </g>
    </g>
    <g id="ytick_7">
     <g id="line2d_13">
      <g>
       <use xlink:href="#m6ee4b23749" x="58.565" y="14.038594" style="stroke: #000000; stroke-width: 0.8"/>
      </g>
     </g>
     <g id="text_14">
      <!-- 18 -->
      <g transform="translate(28.66 20.877187) scale(0.18 -0.18)">
       <use xlink:href="#DejaVuSans-31"/>
       <use xlink:href="#DejaVuSans-38" transform="translate(63.623047 0)"/>
      </g>
     </g>
    </g>
    <g id="text_15">
     <!-- $t(p)$ -->
     <g transform="translate(20.88 159.887646) rotate(-90) scale(0.18 -0.18)">
      <defs>
       <path id="DejaVuSans-Oblique-74" d="M 2706 3500 
L 2619 3053 
L 1472 3053 
L 1100 1153 
Q 1081 1047 1072 975 
Q 1063 903 1063 863 
Q 1063 663 1183 572 
Q 1303 481 1569 481 
L 2150 481 
L 2053 0 
L 1503 0 
Q 991 0 739 200 
Q 488 400 488 806 
Q 488 878 497 964 
Q 506 1050 525 1153 
L 897 3053 
L 409 3053 
L 500 3500 
L 978 3500 
L 1172 4494 
L 1747 4494 
L 1556 3500 
L 2706 3500 
z
" transform="scale(0.015625)"/>
       <path id="DejaVuSans-28" d="M 1984 4856 
Q 1566 4138 1362 3434 
Q 1159 2731 1159 2009 
Q 1159 1288 1364 580 
Q 1569 -128 1984 -844 
L 1484 -844 
Q 1016 -109 783 600 
Q 550 1309 550 2009 
Q 550 2706 781 3412 
Q 1013 4119 1484 4856 
L 1984 4856 
z
" transform="scale(0.015625)"/>
       <path id="DejaVuSans-29" d="M 513 4856 
L 1013 4856 
Q 1481 4119 1714 3412 
Q 1947 2706 1947 2009 
Q 1947 1309 1714 600 
Q 1481 -109 1013 -844 
L 513 -844 
Q 928 -128 1133 580 
Q 1338 1288 1338 2009 
Q 1338 2731 1133 3434 
Q 928 4138 513 4856 
z
" transform="scale(0.015625)"/>
      </defs>
      <use xlink:href="#DejaVuSans-Oblique-74" transform="translate(0 0.125)"/>
      <use xlink:href="#DejaVuSans-28" transform="translate(39.208984 0.125)"/>
      <use xlink:href="#DejaVuSans-Oblique-70" transform="translate(78.222656 0.125)"/>
      <use xlink:href="#DejaVuSans-29" transform="translate(141.699219 0.125)"/>
     </g>
    </g>
   </g>
   <g id="line2d_14">
    <path d="M 74.797727 22.637646 
L 77.354062 88.181532 
L 79.910397 92.767693 
L 82.466732 88.181532 
L 85.023067 88.945892 
L 87.579402 85.888452 
L 90.135737 83.404281 
L 92.692072 78.81812 
L 95.248407 89.328072 
L 97.804742 95.442954 
L 100.361077 99.646935 
L 102.917412 103.086556 
L 105.473747 105.761816 
L 108.030082 107.290537 
L 110.586417 108.054897 
L 113.142752 107.863807 
L 115.699087 119.13812 
L 118.255422 131.941153 
L 120.811757 141.495655 
L 125.924427 157.547219 
L 128.480762 164.426461 
L 131.037097 170.159162 
L 133.593432 176.656224 
L 136.149767 183.726556 
L 138.706102 188.694897 
L 141.262437 193.281058 
L 143.818772 196.529589 
L 146.375107 201.49793 
L 148.931442 203.791011 
L 151.487777 207.230632 
L 156.600447 213.727693 
L 161.713117 218.313854 
L 164.269452 221.371295 
L 166.825787 223.473286 
L 169.382122 225.957456 
L 171.938457 227.103997 
L 174.494792 229.014897 
L 177.051127 231.690158 
L 179.607462 233.218878 
L 182.163797 233.983238 
L 184.720132 235.511959 
L 187.276467 236.658499 
L 189.832802 237.996129 
L 192.389137 239.52485 
L 194.945472 240.09812 
L 197.501807 242.00902 
L 202.614477 244.302101 
L 205.170812 244.111011 
L 207.727147 245.448641 
L 210.283482 246.977362 
L 212.839817 247.741722 
L 215.396152 247.932812 
L 217.952487 248.888262 
L 220.508822 250.034802 
L 223.065157 250.034802 
L 225.621492 251.181343 
L 228.177827 251.563523 
L 230.734162 252.136793 
L 233.290497 252.327883 
L 235.846832 252.901153 
L 238.403168 252.901153 
L 246.072173 254.620963 
L 248.628508 254.812053 
L 251.184843 254.620963 
L 253.741178 255.194234 
L 256.297513 255.958594 
L 258.853848 256.531864 
L 263.966518 256.149684 
L 266.522853 257.487314 
L 269.079188 257.487314 
L 271.635523 256.914044 
L 274.191858 257.487314 
L 276.748193 256.914044 
L 279.304528 257.678404 
L 281.860863 257.487314 
L 284.417198 258.060584 
L 286.973533 258.824944 
L 289.529868 259.016035 
L 294.642538 259.780395 
L 297.198873 259.207125 
L 299.755208 259.780395 
L 302.311543 259.780395 
L 304.867878 259.589305 
L 307.424213 259.207125 
L 312.536883 259.971485 
L 315.093218 259.780395 
L 317.649553 259.207125 
L 320.205888 259.398215 
L 322.762223 259.398215 
L 325.318558 259.589305 
L 327.874893 258.824944 
L 330.431228 259.398215 
L 332.987563 260.162575 
L 335.543898 259.589305 
L 338.100233 259.589305 
L 340.656568 259.780395 
L 343.212903 259.589305 
L 345.769238 260.544755 
L 348.325573 260.162575 
L 350.881908 260.926935 
L 353.438243 259.971485 
L 355.994578 259.780395 
L 358.550913 259.780395 
L 361.107248 260.544755 
L 363.663583 259.398215 
L 366.219918 260.353665 
L 368.776253 259.016035 
L 371.332588 260.544755 
L 373.888923 260.544755 
L 376.445258 260.735845 
L 379.001593 262.264565 
L 381.557928 262.455655 
L 384.114263 262.837835 
L 386.670598 263.411106 
L 391.783268 264.175466 
L 394.339603 263.984376 
L 396.895938 264.557646 
L 399.452273 264.366556 
L 399.452273 264.366556 
" clip-path="url(#p82fb513206)" style="fill: none; stroke: #000000; stroke-width: 2; stroke-linecap: square"/>
    <defs>
     <path id="m6c14b978e8" d="M 0 1.5 
C 0.397805 1.5 0.77937 1.341951 1.06066 1.06066 
C 1.341951 0.77937 1.5 0.397805 1.5 0 
C 1.5 -0.397805 1.341951 -0.77937 1.06066 -1.06066 
C 0.77937 -1.341951 0.397805 -1.5 0 -1.5 
C -0.397805 -1.5 -0.77937 -1.341951 -1.06066 -1.06066 
C -1.341951 -0.77937 -1.5 -0.397805 -1.5 0 
C -1.5 0.397805 -1.341951 0.77937 -1.06066 1.06066 
C -0.77937 1.341951 -0.397805 1.5 0 1.5 
z
" style="stroke: #000000"/>
    </defs>
    <g clip-path="url(#p82fb513206)">
     <use xlink:href="#m6c14b978e8" x="74.797727" y="22.637646" style="stroke: #000000"/>
     <use xlink:href="#m6c14b978e8" x="77.354062" y="88.181532" style="stroke: #000000"/>
     <use xlink:href="#m6c14b978e8" x="79.910397" y="92.767693" style="stroke: #000000"/>
     <use xlink:href="#m6c14b978e8" x="82.466732" y="88.181532" style="stroke: #000000"/>
     <use xlink:href="#m6c14b978e8" x="85.023067" y="88.945892" style="stroke: #000000"/>
     <use xlink:href="#m6c14b978e8" x="87.579402" y="85.888452" style="stroke: #000000"/>
     <use xlink:href="#m6c14b978e8" x="90.135737" y="83.404281" style="stroke: #000000"/>
     <use xlink:href="#m6c14b978e8" x="92.692072" y="78.81812" style="stroke: #000000"/>
     <use xlink:href="#m6c14b978e8" x="95.248407" y="89.328072" style="stroke: #000000"/>
     <use xlink:href="#m6c14b978e8" x="97.804742" y="95.442954" style="stroke: #000000"/>
     <use xlink:href="#m6c14b978e8" x="100.361077" y="99.646935" style="stroke: #000000"/>
     <use xlink:href="#m6c14b978e8" x="102.917412" y="103.086556" style="stroke: #000000"/>
     <use xlink:href="#m6c14b978e8" x="105.473747" y="105.761816" style="stroke: #000000"/>
     <use xlink:href="#m6c14b978e8" x="108.030082" y="107.290537" style="stroke: #000000"/>
     <use xlink:href="#m6c14b978e8" x="110.586417" y="108.054897" style="stroke: #000000"/>
     <use xlink:href="#m6c14b978e8" x="113.142752" y="107.863807" style="stroke: #000000"/>
     <use xlink:href="#m6c14b978e8" x="115.699087" y="119.13812" style="stroke: #000000"/>
     <use xlink:href="#m6c14b978e8" x="118.255422" y="131.941153" style="stroke: #000000"/>
     <use xlink:href="#m6c14b978e8" x="120.811757" y="141.495655" style="stroke: #000000"/>
     <use xlink:href="#m6c14b978e8" x="123.368092" y="149.521437" style="stroke: #000000"/>
     <use xlink:href="#m6c14b978e8" x="125.924427" y="157.547219" style="stroke: #000000"/>
     <use xlink:href="#m6c14b978e8" x="128.480762" y="164.426461" style="stroke: #000000"/>
     <use xlink:href="#m6c14b978e8" x="131.037097" y="170.159162" style="stroke: #000000"/>
     <use xlink:href="#m6c14b978e8" x="133.593432" y="176.656224" style="stroke: #000000"/>
     <use xlink:href="#m6c14b978e8" x="136.149767" y="183.726556" style="stroke: #000000"/>
     <use xlink:href="#m6c14b978e8" x="138.706102" y="188.694897" style="stroke: #000000"/>
     <use xlink:href="#m6c14b978e8" x="141.262437" y="193.281058" style="stroke: #000000"/>
     <use xlink:href="#m6c14b978e8" x="143.818772" y="196.529589" style="stroke: #000000"/>
     <use xlink:href="#m6c14b978e8" x="146.375107" y="201.49793" style="stroke: #000000"/>
     <use xlink:href="#m6c14b978e8" x="148.931442" y="203.791011" style="stroke: #000000"/>
     <use xlink:href="#m6c14b978e8" x="151.487777" y="207.230632" style="stroke: #000000"/>
     <use xlink:href="#m6c14b978e8" x="154.044112" y="210.479162" style="stroke: #000000"/>
     <use xlink:href="#m6c14b978e8" x="156.600447" y="213.727693" style="stroke: #000000"/>
     <use xlink:href="#m6c14b978e8" x="159.156782" y="216.020774" style="stroke: #000000"/>
     <use xlink:href="#m6c14b978e8" x="161.713117" y="218.313854" style="stroke: #000000"/>
     <use xlink:href="#m6c14b978e8" x="164.269452" y="221.371295" style="stroke: #000000"/>
     <use xlink:href="#m6c14b978e8" x="166.825787" y="223.473286" style="stroke: #000000"/>
     <use xlink:href="#m6c14b978e8" x="169.382122" y="225.957456" style="stroke: #000000"/>
     <use xlink:href="#m6c14b978e8" x="171.938457" y="227.103997" style="stroke: #000000"/>
     <use xlink:href="#m6c14b978e8" x="174.494792" y="229.014897" style="stroke: #000000"/>
     <use xlink:href="#m6c14b978e8" x="177.051127" y="231.690158" style="stroke: #000000"/>
     <use xlink:href="#m6c14b978e8" x="179.607462" y="233.218878" style="stroke: #000000"/>
     <use xlink:href="#m6c14b978e8" x="182.163797" y="233.983238" style="stroke: #000000"/>
     <use xlink:href="#m6c14b978e8" x="184.720132" y="235.511959" style="stroke: #000000"/>
     <use xlink:href="#m6c14b978e8" x="187.276467" y="236.658499" style="stroke: #000000"/>
     <use xlink:href="#m6c14b978e8" x="189.832802" y="237.996129" style="stroke: #000000"/>
     <use xlink:href="#m6c14b978e8" x="192.389137" y="239.52485" style="stroke: #000000"/>
     <use xlink:href="#m6c14b978e8" x="194.945472" y="240.09812" style="stroke: #000000"/>
     <use xlink:href="#m6c14b978e8" x="197.501807" y="242.00902" style="stroke: #000000"/>
     <use xlink:href="#m6c14b978e8" x="200.058142" y="243.155561" style="stroke: #000000"/>
     <use xlink:href="#m6c14b978e8" x="202.614477" y="244.302101" style="stroke: #000000"/>
     <use xlink:href="#m6c14b978e8" x="205.170812" y="244.111011" style="stroke: #000000"/>
     <use xlink:href="#m6c14b978e8" x="207.727147" y="245.448641" style="stroke: #000000"/>
     <use xlink:href="#m6c14b978e8" x="210.283482" y="246.977362" style="stroke: #000000"/>
     <use xlink:href="#m6c14b978e8" x="212.839817" y="247.741722" style="stroke: #000000"/>
     <use xlink:href="#m6c14b978e8" x="215.396152" y="247.932812" style="stroke: #000000"/>
     <use xlink:href="#m6c14b978e8" x="217.952487" y="248.888262" style="stroke: #000000"/>
     <use xlink:href="#m6c14b978e8" x="220.508822" y="250.034802" style="stroke: #000000"/>
     <use xlink:href="#m6c14b978e8" x="223.065157" y="250.034802" style="stroke: #000000"/>
     <use xlink:href="#m6c14b978e8" x="225.621492" y="251.181343" style="stroke: #000000"/>
     <use xlink:href="#m6c14b978e8" x="228.177827" y="251.563523" style="stroke: #000000"/>
     <use xlink:href="#m6c14b978e8" x="230.734162" y="252.136793" style="stroke: #000000"/>
     <use xlink:href="#m6c14b978e8" x="233.290497" y="252.327883" style="stroke: #000000"/>
     <use xlink:href="#m6c14b978e8" x="235.846832" y="252.901153" style="stroke: #000000"/>
     <use xlink:href="#m6c14b978e8" x="238.403168" y="252.901153" style="stroke: #000000"/>
     <use xlink:href="#m6c14b978e8" x="240.959503" y="253.474423" style="stroke: #000000"/>
     <use xlink:href="#m6c14b978e8" x="243.515838" y="254.047693" style="stroke: #000000"/>
     <use xlink:href="#m6c14b978e8" x="246.072173" y="254.620963" style="stroke: #000000"/>
     <use xlink:href="#m6c14b978e8" x="248.628508" y="254.812053" style="stroke: #000000"/>
     <use xlink:href="#m6c14b978e8" x="251.184843" y="254.620963" style="stroke: #000000"/>
     <use xlink:href="#m6c14b978e8" x="253.741178" y="255.194234" style="stroke: #000000"/>
     <use xlink:href="#m6c14b978e8" x="256.297513" y="255.958594" style="stroke: #000000"/>
     <use xlink:href="#m6c14b978e8" x="258.853848" y="256.531864" style="stroke: #000000"/>
     <use xlink:href="#m6c14b978e8" x="261.410183" y="256.340774" style="stroke: #000000"/>
     <use xlink:href="#m6c14b978e8" x="263.966518" y="256.149684" style="stroke: #000000"/>
     <use xlink:href="#m6c14b978e8" x="266.522853" y="257.487314" style="stroke: #000000"/>
     <use xlink:href="#m6c14b978e8" x="269.079188" y="257.487314" style="stroke: #000000"/>
     <use xlink:href="#m6c14b978e8" x="271.635523" y="256.914044" style="stroke: #000000"/>
     <use xlink:href="#m6c14b978e8" x="274.191858" y="257.487314" style="stroke: #000000"/>
     <use xlink:href="#m6c14b978e8" x="276.748193" y="256.914044" style="stroke: #000000"/>
     <use xlink:href="#m6c14b978e8" x="279.304528" y="257.678404" style="stroke: #000000"/>
     <use xlink:href="#m6c14b978e8" x="281.860863" y="257.487314" style="stroke: #000000"/>
     <use xlink:href="#m6c14b978e8" x="284.417198" y="258.060584" style="stroke: #000000"/>
     <use xlink:href="#m6c14b978e8" x="286.973533" y="258.824944" style="stroke: #000000"/>
     <use xlink:href="#m6c14b978e8" x="289.529868" y="259.016035" style="stroke: #000000"/>
     <use xlink:href="#m6c14b978e8" x="292.086203" y="259.398215" style="stroke: #000000"/>
     <use xlink:href="#m6c14b978e8" x="294.642538" y="259.780395" style="stroke: #000000"/>
     <use xlink:href="#m6c14b978e8" x="297.198873" y="259.207125" style="stroke: #000000"/>
     <use xlink:href="#m6c14b978e8" x="299.755208" y="259.780395" style="stroke: #000000"/>
     <use xlink:href="#m6c14b978e8" x="302.311543" y="259.780395" style="stroke: #000000"/>
     <use xlink:href="#m6c14b978e8" x="304.867878" y="259.589305" style="stroke: #000000"/>
     <use xlink:href="#m6c14b978e8" x="307.424213" y="259.207125" style="stroke: #000000"/>
     <use xlink:href="#m6c14b978e8" x="309.980548" y="259.589305" style="stroke: #000000"/>
     <use xlink:href="#m6c14b978e8" x="312.536883" y="259.971485" style="stroke: #000000"/>
     <use xlink:href="#m6c14b978e8" x="315.093218" y="259.780395" style="stroke: #000000"/>
     <use xlink:href="#m6c14b978e8" x="317.649553" y="259.207125" style="stroke: #000000"/>
     <use xlink:href="#m6c14b978e8" x="320.205888" y="259.398215" style="stroke: #000000"/>
     <use xlink:href="#m6c14b978e8" x="322.762223" y="259.398215" style="stroke: #000000"/>
     <use xlink:href="#m6c14b978e8" x="325.318558" y="259.589305" style="stroke: #000000"/>
     <use xlink:href="#m6c14b978e8" x="327.874893" y="258.824944" style="stroke: #000000"/>
     <use xlink:href="#m6c14b978e8" x="330.431228" y="259.398215" style="stroke: #000000"/>
     <use xlink:href="#m6c14b978e8" x="332.987563" y="260.162575" style="stroke: #000000"/>
     <use xlink:href="#m6c14b978e8" x="335.543898" y="259.589305" style="stroke: #000000"/>
     <use xlink:href="#m6c14b978e8" x="338.100233" y="259.589305" style="stroke: #000000"/>
     <use xlink:href="#m6c14b978e8" x="340.656568" y="259.780395" style="stroke: #000000"/>
     <use xlink:href="#m6c14b978e8" x="343.212903" y="259.589305" style="stroke: #000000"/>
     <use xlink:href="#m6c14b978e8" x="345.769238" y="260.544755" style="stroke: #000000"/>
     <use xlink:href="#m6c14b978e8" x="348.325573" y="260.162575" style="stroke: #000000"/>
     <use xlink:href="#m6c14b978e8" x="350.881908" y="260.926935" style="stroke: #000000"/>
     <use xlink:href="#m6c14b978e8" x="353.438243" y="259.971485" style="stroke: #000000"/>
     <use xlink:href="#m6c14b978e8" x="355.994578" y="259.780395" style="stroke: #000000"/>
     <use xlink:href="#m6c14b978e8" x="358.550913" y="259.780395" style="stroke: #000000"/>
     <use xlink:href="#m6c14b978e8" x="361.107248" y="260.544755" style="stroke: #000000"/>
     <use xlink:href="#m6c14b978e8" x="363.663583" y="259.398215" style="stroke: #000000"/>
     <use xlink:href="#m6c14b978e8" x="366.219918" y="260.353665" style="stroke: #000000"/>
     <use xlink:href="#m6c14b978e8" x="368.776253" y="259.016035" style="stroke: #000000"/>
     <use xlink:href="#m6c14b978e8" x="371.332588" y="260.544755" style="stroke: #000000"/>
     <use xlink:href="#m6c14b978e8" x="373.888923" y="260.544755" style="stroke: #000000"/>
     <use xlink:href="#m6c14b978e8" x="376.445258" y="260.735845" style="stroke: #000000"/>
     <use xlink:href="#m6c14b978e8" x="379.001593" y="262.264565" style="stroke: #000000"/>
     <use xlink:href="#m6c14b978e8" x="381.557928" y="262.455655" style="stroke: #000000"/>
     <use xlink:href="#m6c14b978e8" x="384.114263" y="262.837835" style="stroke: #000000"/>
     <use xlink:href="#m6c14b978e8" x="386.670598" y="263.411106" style="stroke: #000000"/>
     <use xlink:href="#m6c14b978e8" x="389.226933" y="263.793286" style="stroke: #000000"/>
     <use xlink:href="#m6c14b978e8" x="391.783268" y="264.175466" style="stroke: #000000"/>
     <use xlink:href="#m6c14b978e8" x="394.339603" y="263.984376" style="stroke: #000000"/>
     <use xlink:href="#m6c14b978e8" x="396.895938" y="264.557646" style="stroke: #000000"/>
     <use xlink:href="#m6c14b978e8" x="399.452273" y="264.366556" style="stroke: #000000"/>
    </g>
   </g>
   <g id="line2d_15">
    <defs>
     <path id="m9eda4eec0e" d="M 0 1.5 
C 0.397805 1.5 0.77937 1.341951 1.06066 1.06066 
C 1.341951 0.77937 1.5 0.397805 1.5 0 
C 1.5 -0.397805 1.341951 -0.77937 1.06066 -1.06066 
C 0.77937 -1.341951 0.397805 -1.5 0 -1.5 
C -0.397805 -1.5 -0.77937 -1.341951 -1.06066 -1.06066 
C -1.341951 -0.77937 -1.5 -0.397805 -1.5 0 
C -1.5 0.397805 -1.341951 0.77937 -1.06066 1.06066 
C -0.77937 1.341951 -0.397805 1.5 0 1.5 
z
" style="stroke: #ff0000"/>
    </defs>
    <g clip-path="url(#p82fb513206)">
     <use xlink:href="#m9eda4eec0e" x="74.797727" y="22.637646" style="fill: #ff0000; stroke: #ff0000"/>
    </g>
   </g>
   <g id="patch_3">
    <path d="M 58.565 276.653646 
L 58.565 10.541646 
" style="fill: none; stroke: #000000; stroke-width: 0.8; stroke-linejoin: miter; stroke-linecap: square"/>
   </g>
   <g id="patch_4">
    <path d="M 415.685 276.653646 
L 415.685 10.541646 
" style="fill: none; stroke: #000000; stroke-width: 0.8; stroke-linejoin: miter; stroke-linecap: square"/>
   </g>
   <g id="patch_5">
    <path d="M 58.565 276.653646 
L 415.685 276.653646 
" style="fill: none; stroke: #000000; stroke-width: 0.8; stroke-linejoin: miter; stroke-linecap: square"/>
   </g>
   <g id="patch_6">
    <path d="M 58.565 10.541646 
L 415.685 10.541646 
" style="fill: none; stroke: #000000; stroke-width: 0.8; stroke-linejoin: miter; stroke-linecap: square"/>
   </g>
  </g>
 </g>
 <defs>
  <clipPath id="p82fb513206">
   <rect x="58.565" y="10.541646" width="357.12" height="266.112"/>
  </clipPath>
 </defs>
</svg>
